<?xml version="1.0" encoding="utf-8"?>
<!-- Generator: Adobe Illustrator 18.0.0, SVG Export Plug-In . SVG Version: 6.00 Build 0)  -->
<!DOCTYPE svg PUBLIC "-//W3C//DTD SVG 1.1//EN" "http://www.w3.org/Graphics/SVG/1.1/DTD/svg11.dtd">
<svg version="1.1" id="Слой_1" xmlns="http://www.w3.org/2000/svg" xmlns:xlink="http://www.w3.org/1999/xlink" x="0px" y="0px"
	 viewBox="0 128 1024 340.6" enable-background="new 0 128 1024 340.6" xml:space="preserve">
<path fill="none" stroke="#000000" stroke-width="2" stroke-linecap="round" stroke-linejoin="round" stroke-miterlimit="10" d="
	M1024,399.3h-13.4v-12.4h-0.9c-6.6-9.3-22.9-12.4-30.1-13.4v-8.4h-4.1V361H965v-5.2h-17.6v8.3h-2.1V361h-3.1v3.1h-3.1v1H934v15.5
	h-4.1V361h-6.2v-5.7v-2.2v-1.4h-3.1v2.1h-13.4v-27.9h-39.3v27.9h-5.3c0.1,0,0.2-0.8,0.2-1.1c0-1-0.8-2-1.9-2c-1,0-1.9,1.1-1.9,2.1
	c0,0.3,0.1,1.1,0.2,1.1h-7.9v7.2h-2.1v-7.2h-18.6v7.2h-3.1v17.6h-12.4v15.5H812v-26.9h-9.3v-2.1h-4.1v2.1h-8.3v4.1h-1v-17.6H784
	v-5.2h-8.3v-4.1h-10.3V330h2.8l-10.7-7.2h-18.3l-9.7,7.2h1.8v12.4h-1v4.1h-3.1v-61h-7.2v-7.2h-14.5v7.2h-6.2v68.3H694v-5.2h-4.1
	v-41.4h-6.2v-21.7H663v-31h-8.3v-5.2h-1.5l-5.8-8.3h-0.9c0.6-1,0.9-1.9,0.9-2.8c0-1.8-1.4-3.5-3.2-3.5c-1.8,0-3.2,1.9-3.2,3.6
	c0,0.9,0.4,1.6,0.9,2.7h-1l-7.1,8.3H632v5.2h-7.2v35v25.9v41.5h-5.2v-40.3h-5.2v-40l-3.6-1.4h-36.7V301h-10.3v18.6h-8.3V216.2h-2.1
	V212h-24.8v4.1h-2.1v37.2h-5.2v2.1h-3.1v43.4h-3.1v7.2h-8.3v40.3h-6.2l-7.2-58.7c-1.2-30.6,0.7-43.4,0.7-43.4
	c1.2-11.9,7.4-47.8,7.4-47.8h3.2c9.3-1,8.2-3.6,8.2-3.6c-0.7-0.8-3.2-1.5-3.2-1.5l1.5-4.9l10.6-3.3l-8.7-2.5v-4.1l-22.8-6.9V169
	c0-1.6,3.1-3.3,3.1-3.3v-0.2h-2.1v-5.7l-6.2-0.3v-3.3h-0.4l-0.1-0.1l-0.3-22.6H483l-0.3,22.6l-0.1,0.1H481v3.3l-8.3,0.3v5.7h-3.1
	v0.2c0,0,4.1,1.7,4.1,3.3v0.7l-20.7,5.8v4.1l-9.3,3.6l12.3,3.2l1.6,4.9c0,0-2.5,0.7-3.2,1.5c0,0-1,2.6,8.3,3.7h3.9
	c0,0,6.4,36.2,7.6,48c0,0,0.3,2.6,0.6,9.9h-35.2v29h-7.2v36.2h-14.5v4.1h-3.1v-4.1H392v4.1h-2.1v-42.4h-4.1v-7.2h-4.3l-4.7-8.3
	h-11.9l-3.8,8.3h-5.3v7.2h-4.1v6.2h-11.4v7.2H332v13.4h-4.1v-17.6h-42.4v33.1h-4.1v-89.3l-9.7-6.5l-38.9-5.4v12.2h-3.1v92.1h-10.3
	v3.1h-4.1v-3.1h-13.4v5.2h-1.8h-5.4h-11.4v-31h3.1v-8.3h-20.7v-5.2h-2.1v-2.1h-4.1v2.1h-10.3v5.2h-11.4v8.3h3.1v25.9h-3.1v-7.2
	h-33.1v7.2h-4.1v12.4h-4.1v-22.8H68.3v26.9H43.4V330H33.1v-3.1H9.3v3.1H0v69.5v69.1h452.3l0,0h60.4l0,0H1024V399.3z M994.8,388.3
	c-1.3-0.6-2.7-1.2-4.1-1.7l3-6.5L994.8,388.3z M980.9,383.8l3.1-6.8l1.5,7.9C983.8,384.4,982.2,384,980.9,383.8z M985.4,384.9
	l3.2-6.9l2.1,8.6C989,385.9,987.2,385.3,985.4,384.9z M497.2,197.6c-5.2,41.4-10,45-10,45v-24.3h4.1V211h-4.1v-13.4H497.2z
	 M471.2,197.8l6.7-0.6v49.9h-0.4L471.2,197.8z"/>
</svg>
