<svg xmlns="http://www.w3.org/2000/svg" xml:space="preserve" viewBox="0 0 100 100" fill="currentColor">
  <g>
    <path d="M99.9 50A49.9 49.9 0 0 0 47.76.15L37.55 28.21h8.89c5.29 0 8.14 4.07 6.33 9.04l-12.6 34.6H29.62l13.5-37.09h-7.94L21.66 71.85H11.08l15.89-43.64 9.56-26.27a49.92 49.92 0 0 0 1.89 96.6l9.26-25.44 16.34-44.9h19.47c5.3 0 8.14 4.08 6.33 9.05l-11.06 30.4a6.88 6.88 0 0 1-6.01 4.2H58.72l-10.2 28.03 1.48.02A49.9 49.9 0 0 0 99.9 50"/>
    <path d="M80.2 34.74h-7.95L61.12 65.27h7.95l11.12-30.53"/>
  </g>
</svg>