<?xml version="1.0" encoding="UTF-8"?>
<svg clip-rule="evenodd" stroke-linecap="round" stroke-linejoin="round" stroke-miterlimit="10" version="1.1" viewBox="0 0 300 133.27" xml:space="preserve" xmlns="http://www.w3.org/2000/svg">
<clipPath>
<rect width="300" height="133.27"/>
</clipPath>
<path d="m181.23 23.85h-19.6v84.86h60.22v-16.53h-40.62v-68.34 0.01z" />
<clipPath>
<path d="m-70.88-89.409h442.14v312.63h-442.14v-312.63z"/>
</clipPath>
<g>
<path d="m264.98 76.353h15.96v14.836c-2.941 1.1291-8.676 2.2477-14.138 2.2477-17.646 0-23.528-8.9701-23.528-27.173 0-17.362 5.599-27.588 23.245-27.588 9.805 0 15.403 3.0828 20.019 8.9648l12.195-11.202c-7.431-10.64-20.456-13.865-32.64-13.865-27.44 0-41.867 14.983-41.867 43.548 0 28.433 13.024 43.837 41.731 43.837 13.166 0 26.049-3.361 33.049-8.261v-41.174h-34.026v15.829z" />
<path d="m66.656 1c-36.253 0-65.656 29.367-65.656 65.625 0 36.237 29.403 65.625 65.656 65.625 36.253 0 65.625-29.388 65.625-65.625 0-36.253-29.372-65.625-65.625-65.625zm0 10.656c0.6355 1e-4 1.9321 5e-3 2.5938 0.0313v5.125c-0.5987-0.0158-1.9898-0.0313-2.5938-0.0313-13.215-0.0334-25.905 5.2181-35.219 14.594-9.3788 9.3159-14.631 22-14.594 35.219-0.0372 13.218 5.2147 25.905 14.594 35.218 9.3189 9.366 22.006 14.627 35.219 14.594 26.338 0 47.939-20.561 49.688-46.468v-0.7187h-34v-5.125h37.031 2.187v2.5c0.045 14.571-5.734 28.566-16.062 38.844-10.287 10.337-24.292 16.133-38.875 16.093-14.583 0.037-28.555-5.759-38.844-16.093-10.367-10.368-16.062-24.176-16.062-38.844-1e-4 -30.292 24.661-54.938 54.937-54.938zm-20.969 26.125c4.3507 1e-4 7.875 3.5243 7.875 7.875-0.0087 4.3446-3.5304 7.8751-7.875 7.875-4.2096-0.1884-7.5313-3.6612-7.5313-7.875 1e-4 -4.2137 3.3217-7.6866 7.5313-7.875zm18.344 0.0313h5.2188v52.406h13.062v5.125h-18.281v-57.531z"/>
</g>
</svg>
