<svg xmlns="http://www.w3.org/2000/svg" xml:space="preserve" viewBox="0 0 91.03 30.22" fill="currentColor">
  <path d="M90.97 7.2c1.24 7.1-18.1 16.4-43.21 20.78-25.1 4.37-46.47 2.16-47.7-4.95-1.24-7.11 18.1-16.41 43.21-20.79C68.38-2.13 89.73.1 90.97 7.2z"/>
  <path fill="#FFF" d="m67.34 17.75-.13-7.39h2.33v9.31h-3.35l-2.32-7.64h-.05l.13 7.64h-2.32v-9.31h3.5l2.16 7.39zm-42.35-6.52-1.29 8.54h-2.54l1.74-9.41h4.19l1.73 9.41h-2.53l-1.25-8.54zm10.97 6.32 1.17-7.19h3.83l.21 9.41h-2.36l-.06-8.46h-.05l-1.57 8.46h-2.39l-1.57-8.46h-.05l-.06 8.46H30.7l.21-9.41h3.84l1.16 7.19zm-18.76-.44c.09.23.06.52.01.7-.07.31-.29.63-.91.63-.6 0-.95-.34-.95-.85v-.91h-2.52v.72c0 2.1 1.65 2.74 3.42 2.74 1.7 0 3.1-.59 3.32-2.15.12-.82.03-1.35 0-1.55-.4-1.97-3.98-2.56-4.24-3.66a1.25 1.25 0 0 1-.01-.5c.06-.3.27-.63.86-.63.55 0 .87.34.87.86v.58h2.35v-.66c0-2.05-1.84-2.37-3.17-2.37-1.68 0-3.05.55-3.3 2.08-.06.42-.07.8.03 1.27.4 1.93 3.75 2.48 4.23 3.7zm30.6-.01c.09.22.06.5.02.68-.08.31-.29.63-.91.63-.58 0-.94-.34-.94-.84v-.9h-2.5v.71c0 2.08 1.64 2.7 3.39 2.7 1.68 0 3.07-.57 3.29-2.12.11-.8.03-1.33 0-1.53-.4-1.95-3.94-2.53-4.2-3.63a1.18 1.18 0 0 1-.01-.48c.07-.3.27-.63.85-.63.55 0 .86.33.86.84v.58h2.33v-.65c0-2.03-1.82-2.35-3.14-2.35-1.66 0-3.02.55-3.26 2.07-.07.41-.07.78.02 1.25.4 1.9 3.72 2.46 4.2 3.66zm7.9 1.26c.65 0 .86-.45.9-.68.02-.1.03-.24.03-.36v-6.97H59v6.75c.01.18 0 .53-.01.62-.17 1.76-1.56 2.33-3.29 2.33s-3.12-.57-3.29-2.33l-.02-.62v-6.75h2.38v6.97c0 .12 0 .26.02.36.05.23.25.68.91.68zm19.63-.1c.69 0 .92-.43.97-.68l.02-.36v-1.37h-.97v-1.37h3.34v2.53c0 .17 0 .3-.03.62-.16 1.7-1.65 2.32-3.31 2.32-1.68 0-3.16-.61-3.32-2.32A7.61 7.61 0 0 1 72 17v-3.97c0-.16.02-.46.04-.62.2-1.76 1.63-2.32 3.3-2.32s3.13.56 3.3 2.32c.04.3.03.62.03.62v.32H76.3v-.53s0-.22-.04-.36c-.04-.2-.22-.68-.93-.68-.69 0-.89.45-.94.68-.03.13-.04.3-.04.45v4.3c0 .12 0 .25.02.36.05.25.28.68.96.68z"/>
</svg>