<svg clip-rule="evenodd" stroke-linecap="round" stroke-linejoin="round" stroke-miterlimit="10" version="1.1" viewBox="0 0 91.03 30.22" xml:space="preserve" xmlns="http://www.w3.org/2000/svg">
<path d="m69.062 0.03125c-7.4965-0.12627-16.365 0.58-25.781 2.2188-11.148 1.9445-21.016 4.8944-28.594 8.1562 0.478-0.1538 0.942-0.3437 1.5313-0.3437 1.33 0 3.1874 0.325 3.1874 2.375v0.6563h-2.3437v-0.5938c0-0.52-0.325-0.8438-0.875-0.8438-0.59 1e-4 -0.815 0.325-0.875 0.625-0.0304 0.1657-0.0057 0.3358 0.0313 0.5 0.2599 1.1 3.8187 1.6863 4.2187 3.6563 0.03 0.2 0.12 0.7425 0 1.5625-0.22 1.56-1.6125 2.125-3.3125 2.125-1.77 0-3.4062-0.6187-3.4062-2.7188v-0.7187h2.5v0.9063c-1e-4 0.5099 0.3687 0.8437 0.9687 0.8437 0.62 0 0.8363-0.315 0.9063-0.625 0.05-0.18 0.0587-0.4575-0.0313-0.6875-0.48-1.22-3.8187-1.7887-4.2187-3.7188-0.1001-0.4699-0.0913-0.8612-0.0313-1.2812 0.1104-0.6758 0.4911-1.0758 0.9687-1.4062-9.0333 4.0031-14.515 8.4654-13.844 12.312 1.23 7.1101 22.588 9.3076 47.688 4.9376 11.478-2.0021 21.629-5.0283 29.281-8.4063-0.518 0.2043-1.0566 0.375-1.6874 0.375-1.6801 0-3.1526-0.6025-3.3126-2.3125-0.0187-0.2095-0.0299-0.4147-0.0312-0.625v-3.9688c0-0.16 0.0113-0.4649 0.0312-0.625 0.2001-1.76 1.6425-2.3125 3.3126-2.3124 1.67 0 3.1112 0.5524 3.2812 2.3124 0.04 0.3001 0.0313 0.625 0.0312 0.625v0.3126h-2.3437v-0.5313s-0.0225-0.2037-0.0625-0.3437c-0.04-0.2001-0.1963-0.6876-0.9062-0.6876-0.69 0-0.9188 0.4576-0.9688 0.6876-0.03 0.1299-0.0312 0.2874-0.0312 0.4374v4.3126c0 0.1199 0.0112 0.2337 0.0312 0.3437 0.05 0.25 0.2888 0.6875 0.9688 0.6875 0.6899 0 0.9187-0.4062 0.9687-0.6562v-0.375-1.375h-0.9687v-1.375h3.3437v2.5312c0 0.17-0.0013 0.305-0.0313 0.625-0.0697 0.7415-0.4266 1.2563-0.9062 1.625 8.6683-3.9329 13.875-8.307 13.219-12.062-0.7751-4.4375-9.4121-6.9458-21.906-7.1562zm-22.219 10.094c1.32 0 3.125 0.3137 3.125 2.3438v0.6562h-2.3126v-0.5938c0-0.5099-0.3249-0.8437-0.875-0.8437-0.58 0-0.7737 0.325-0.8437 0.625-0.0296 0.159-0.0362 0.3424 0 0.5 0.26 1.1 3.8187 1.675 4.2187 3.625 0.03 0.2 0.1101 0.7312 0 1.5313-0.22 1.55-1.6012 2.125-3.2812 2.125-1.75 0-3.4062-0.6388-3.4062-2.7188v-0.7188h2.5v0.9063c0 0.5 0.3574 0.8437 0.9374 0.8437 0.6201 1e-4 0.8263-0.3149 0.9063-0.625 0.04-0.18 0.09-0.4675 0-0.6874-0.48-1.2001-3.8187-1.7563-4.2187-3.6563-0.09-0.47-0.07-0.84 0-1.25 0.2399-1.52 1.5899-2.0625 3.25-2.0625zm5.5312 0.2188h2.4062v6.9687c0 0.12-0.0199 0.275 0 0.375 0.0501 0.23 0.2463 0.6875 0.9063 0.6875 0.65 0 0.8662-0.4575 0.9063-0.6875 0.02-0.1 0.0312-0.255 0.0312-0.375v-6.9687h2.375v6.75c0.01 0.18 0.01 0.5349 0 0.625-0.17 1.76-1.5825 2.3437-3.3125 2.3437s-3.1113-0.5838-3.2813-2.3437l-0.0312-0.625v-6.75zm-29.469 0.0312h4.1876l1.7187 9.4062h-2.5313l-1.25-8.5624h-0.0312l-1.3125 8.5624h-2.5313l1.75-9.4062zm8 0h3.8438l1.1562 7.1875h0.0626l1.1562-7.1875h3.8438l0.1874 9.4062h-2.3437l-0.0625-8.4687h-0.0625l-1.5625 8.4687h-2.375l-1.5938-8.4687h-0.0312l-0.0625 8.4687h-2.375l0.2187-9.4062zm30.719 0h3.5l2.1562 7.375h0.0626l-0.125-7.375h2.3124v9.2812h-3.3437l-2.3125-7.625h-0.0625l0.125 7.625h-2.3125v-9.2812z"/>
</svg>
