<svg xmlns="http://www.w3.org/2000/svg" viewBox="0 0 500 112.32">
  <path fill="#cd040b" d="m488 1-27.14 58.2-10.26-22.08h-11.08l16.84 36.11h8.95L499 1.01V1h-11Z"/>
  <path d="M199.57 11.53h22.06v19.54h-22.06V11.53zM26.01 109.07h23.05L74.08 37.1H52L37.96 83.35h-.28L23.62 37.1H1l25.01 71.96zm80.95-58.32c7.73 0 13.07 5.76 13.91 14.2H91.5c1.69-8.58 6.32-14.2 15.46-14.2m1.12 44.54c-9.7 0-15.6-6.32-16.72-16.02h51.86c.14-15.46-3.94-27.82-12.51-35.55-6.04-5.62-14.05-8.71-24.17-8.71-21.64 0-36.68 16.44-36.68 37.94 0 21.64 14.34 38.23 38.08 38.23 9 0 16.16-2.4 22.07-6.47 6.32-4.35 10.82-10.68 12.08-17h-21.08c-2.1 4.78-6.46 7.58-12.93 7.58m40.34 13.78h21.92V76.04c0-15.03 9-21.64 22.76-19.81h.43V37.26c-1.13-.43-2.4-.57-4.5-.57-8.57 0-14.33 3.94-19.25 12.37h-.43V37.1h-20.93v71.96zm51.15 0h22.06V37.1h-22.06v71.96zm28.11 0h61.55v-17.3h-34.85v-.4l33.3-37.39V37.11h-60V54.4h33.72v.42L227.68 92.5v16.58zm100.48-13.91c-10.4 0-15.88-8.72-15.88-21.93 0-13.35 5.48-21.92 15.88-21.92s16.16 8.57 16.16 21.92c0 13.21-5.76 21.93-16.16 21.93m.14-60.01c-22.9 0-38.23 16.44-38.23 38.08 0 21.5 15.32 38.09 38.23 38.09 22.9 0 38.22-16.59 38.22-38.09 0-21.64-15.32-38.08-38.22-38.08m43 73.92h21.93V69c0-9.13 5.33-15.6 13.2-15.6 7.6 0 11.53 5.35 11.53 12.94v42.72h21.92V62.13c0-15.88-9.55-27.12-25.01-27.12-9.84 0-16.73 4.22-21.92 11.94h-.43v-9.84H371.3v71.96z"/>
</svg>