<?xml version="1.0" encoding="UTF-8"?>
<svg xmlns="http://www.w3.org/2000/svg" xmlns:xlink="http://www.w3.org/1999/xlink" width="3000" height="3750" viewBox="0 0 3000 3750">
<path fill-rule="evenodd" fill="rgb(0%, 0%, 0%)" fill-opacity="1" d="M 1606.210938 3217.953125 C 1580.710938 3217.953125 1555.210938 3218.195312 1529.710938 3217.953125 C 1484.609375 3217.410156 1439.5 3216.394531 1394.390625 3215.84375 C 1351.800781 3215.3125 1309.160156 3216.007812 1266.601562 3214.527344 C 1203.921875 3212.351562 1141.320312 3208.203125 1078.648438 3205.882812 C 1030.101562 3204.082031 981.488281 3203 932.898438 3202.988281 C 863.101562 3202.988281 793.261719 3203.132812 723.496094 3205.222656 C 661.566406 3207.078125 599.726562 3211.53125 537.867188 3215.125 C 484.671875 3218.21875 431.550781 3223.304688 378.332031 3224.597656 C 323.410156 3225.933594 268.378906 3224.277344 213.425781 3222.792969 C 200.550781 3222.464844 186.921875 3219.523438 175.339844 3214.128906 C 168.386719 3210.890625 162.652344 3201.1875 160.375 3193.230469 C 159.113281 3188.828125 165.402344 3181.546875 174.3125 3184 C 182.203125 3186.175781 190.382812 3187.359375 196.660156 3188.621094 C 194.757812 3180.683594 192.746094 3173.300781 191.265625 3165.816406 C 189.496094 3157 195.089844 3155.339844 201.457031 3157.628906 C 228.96875 3167.53125 257.316406 3162.390625 285.246094 3162.390625 C 348.003906 3162.390625 410.75 3160.710938 473.519531 3160.414062 C 508.464844 3160.246094 543.425781 3161.617188 578.375 3162.058594 C 625.414062 3162.65625 672.453125 3163.265625 719.496094 3163.398438 C 752.753906 3163.507812 786.03125 3162.324219 819.289062 3162.667969 C 832.242188 3162.800781 845.140625 3166.371094 858.117188 3166.691406 C 865.910156 3166.902344 873.722656 3162.976562 881.625 3162.4375 C 906.382812 3160.757812 931.097656 3154.929688 956.042969 3162.746094 C 961.859375 3164.570312 969.164062 3161.121094 975.785156 3161.019531 C 999.171875 3160.699219 1022.558594 3160.613281 1045.960938 3160.746094 C 1076.53125 3160.898438 1107.109375 3160.976562 1137.671875 3161.761719 C 1176.789062 3162.765625 1215.878906 3164.777344 1255 3165.675781 C 1284.191406 3166.335938 1313.429688 3165.488281 1342.621094 3166.136719 C 1366.941406 3166.679688 1391.210938 3168.601562 1415.519531 3169.5 C 1423.839844 3169.808594 1432.199219 3168.371094 1440.539062 3168.558594 C 1507.328125 3170.039062 1574.121094 3171.785156 1640.921875 3173.269531 C 1657.101562 3173.632812 1673.289062 3173.378906 1689.480469 3173.378906 C 1689.960938 3172.140625 1690.460938 3170.890625 1690.941406 3169.664062 C 1686.570312 3167.996094 1682.25 3164.976562 1677.828125 3164.84375 C 1635.628906 3163.664062 1593.390625 3163.03125 1551.179688 3162.105469 C 1489.929688 3160.757812 1428.679688 3158.933594 1367.410156 3157.960938 C 1308.191406 3157.019531 1248.941406 3157.042969 1189.710938 3156.367188 C 1147.609375 3155.882812 1105.519531 3155.042969 1063.421875 3154.179688 C 1029.289062 3153.484375 995.160156 3152.476562 961.027344 3151.703125 C 919.789062 3150.765625 878.554688 3149.292969 837.316406 3149.261719 C 797.382812 3149.261719 757.425781 3151.75 717.503906 3151.316406 C 661.492188 3150.710938 605.476562 3148.6875 549.484375 3146.753906 C 512.789062 3145.480469 476.148438 3142.652344 439.453125 3141.667969 C 384.789062 3140.210938 330.085938 3139.886719 275.421875 3138.785156 C 265.417969 3138.574219 255.007812 3138.351562 245.601562 3135.46875 C 239.058594 3133.457031 232.4375 3127.875 228.535156 3122.09375 C 223.839844 3115.097656 230.515625 3107.007812 240.484375 3107.238281 C 257.539062 3107.648438 274.570312 3108.851562 293.082031 3106.886719 C 289.558594 3104.355469 285.113281 3102.488281 282.695312 3099.148438 C 278.316406 3093.167969 272.4375 3086.4375 272.136719 3079.785156 C 271.761719 3071.242188 280.25 3069.957031 286.839844 3073.394531 C 316.667969 3088.96875 349.109375 3085.554688 380.753906 3086.171875 C 436.039062 3087.277344 491.355469 3087.058594 546.664062 3087.023438 C 573.578125 3087.011719 600.492188 3086.207031 627.402344 3085.742188 C 678.886719 3084.855469 730.371094 3083.6875 781.863281 3083.15625 C 820.25 3082.769531 858.667969 3082.546875 897.035156 3083.375 C 949.976562 3084.503906 1002.921875 3086.085938 1055.820312 3088.558594 C 1118.988281 3091.523438 1182.140625 3095.347656 1245.269531 3099.304688 C 1295.160156 3102.429688 1344.988281 3106.464844 1394.871094 3109.804688 C 1450.828125 3113.550781 1506.851562 3116.414062 1562.769531 3120.679688 C 1609.089844 3124.203125 1655.910156 3126.074219 1701.289062 3134.894531 C 1724.191406 3139.335938 1746.648438 3143.082031 1769.828125 3144.488281 C 1804.03125 3146.5625 1838.199219 3149.195312 1872.339844 3151.9375 C 1912.230469 3155.128906 1952.070312 3159.074219 1991.980469 3161.839844 C 2002.339844 3162.558594 2013.761719 3162.191406 2023.191406 3158.488281 C 2032.839844 3154.699219 2037.691406 3158.335938 2044.109375 3163.453125 C 2047.53125 3166.183594 2052.488281 3168.214844 2056.808594 3168.347656 C 2081.601562 3169.113281 2106.429688 3169.113281 2131.230469 3169.566406 C 2173.289062 3170.328125 2215.328125 3171.023438 2257.359375 3172.152344 C 2304.808594 3173.445312 2352.25 3175.378906 2399.710938 3176.683594 C 2459.71875 3178.339844 2519.71875 3179.84375 2579.75 3181.046875 C 2622.320312 3181.898438 2664.910156 3183.050781 2707.480469 3182.332031 C 2734.851562 3181.867188 2762.148438 3178.273438 2789.488281 3176.085938 C 2789.378906 3174.757812 2789.378906 3173.433594 2789.339844 3172.097656 C 2782.429688 3166.25 2775.519531 3160.390625 2768.609375 3154.542969 C 2769.140625 3153.074219 2769.679688 3151.605469 2770.191406 3150.144531 C 2787.28125 3152.222656 2804.519531 3153.449219 2821.398438 3156.6875 C 2832.710938 3158.855469 2837.761719 3168.40625 2839.53125 3179.378906 C 2841.53125 3191.8125 2831.578125 3194.5 2823.519531 3198.621094 C 2820.851562 3200.003906 2817.980469 3201.066406 2814.261719 3202.667969 C 2824.648438 3224 2799.429688 3226.5625 2793.980469 3243.40625 C 2758.78125 3243.40625 2722.609375 3244.226562 2686.480469 3243.175781 C 2646.550781 3242.027344 2606.671875 3237.703125 2566.761719 3237.4375 C 2521.949219 3237.152344 2477.128906 3239.574219 2432.339844 3241.363281 C 2392.988281 3242.945312 2353.699219 3245.984375 2314.351562 3247.097656 C 2255.410156 3248.746094 2196.449219 3249.917969 2137.5 3250.082031 C 2084.339844 3250.238281 2031.199219 3248.457031 1978.050781 3248.09375 C 1929.710938 3247.773438 1881.359375 3248.347656 1833 3248.269531 C 1803.609375 3248.269531 1774.179688 3247.011719 1744.789062 3247.441406 C 1654.671875 3248.746094 1564.570312 3250.492188 1474.46875 3252.273438 C 1439.828125 3252.957031 1405.199219 3254.792969 1370.558594 3254.902344 C 1345.140625 3255.011719 1319.71875 3253.144531 1294.300781 3252.019531 C 1293.328125 3252.019531 1292.410156 3250.601562 1288.058594 3247.132812 C 1395.410156 3227.789062 1501.199219 3229.09375 1606.328125 3222.949219 C 1606.328125 3221.324219 1606.210938 3219.6875 1606.210938 3218.054688 Z M 1273.109375 3130.304688 C 1039.351562 3111.683594 805.296875 3109.238281 571.035156 3119.054688 C 805.0625 3122.8125 1039.078125 3126.558594 1273.109375 3130.304688 Z M 1647.058594 3220.097656 C 1647.171875 3220.582031 1647.230469 3221.058594 1647.300781 3221.546875 C 1727.539062 3221.546875 1807.769531 3221.546875 1888 3221.546875 C 1876.960938 3217.675781 1865.859375 3215.863281 1854.671875 3215.144531 C 1815.171875 3212.613281 1775.640625 3210.460938 1736.109375 3208.148438 C 1719.980469 3207.199219 1703.269531 3201.296875 1688.78125 3214.128906 C 1687.410156 3215.332031 1684.539062 3214.816406 1682.359375 3215.113281 C 1670.609375 3216.769531 1658.828125 3218.429688 1647.058594 3220.097656 Z M 2016.628906 3193.914062 C 2016.519531 3195.890625 2016.429688 3197.859375 2016.320312 3199.839844 C 2077.628906 3202.933594 2138.941406 3206.027344 2200.25 3209.109375 C 2200.359375 3207.507812 2200.429688 3205.894531 2200.511719 3204.28125 C 2139.21875 3200.832031 2077.921875 3197.375 2016.628906 3193.914062 Z M 2016.628906 3193.914062 "/>
<path fill-rule="evenodd" fill="rgb(0%, 0%, 0%)" fill-opacity="1" d="M 2658.488281 1721.878906 C 2679.339844 1720.640625 2698.589844 1719.601562 2717.820312 1718.328125 C 2738.851562 1716.949219 2759.921875 1715.628906 2780.890625 1713.648438 C 2786.179688 1713.160156 2791.238281 1708.730469 2796.378906 1708.75 C 2809.410156 1708.75 2814.789062 1719.609375 2811.730469 1731.480469 C 2819.949219 1739.089844 2827.648438 1744.460938 2832.75 1751.679688 C 2835.148438 1755.089844 2833.570312 1762.429688 2831.71875 1767.171875 C 2831.019531 1768.980469 2824.488281 1769.140625 2820.648438 1769.011719 C 2811.5 1768.691406 2802.378906 1767.429688 2793.230469 1767.261719 C 2789.941406 1767.148438 2786.601562 1769.191406 2783.679688 1773.390625 C 2792.949219 1774.691406 2802.199219 1776.421875 2811.511719 1777.160156 C 2828.949219 1778.558594 2832.75 1783.5 2827.820312 1804.691406 C 2767.589844 1805.941406 2706.308594 1805.859375 2645.199219 1808.878906 C 2592.089844 1811.519531 2540.230469 1800.898438 2487.671875 1798.441406 C 2448.289062 1796.589844 2408.910156 1794.558594 2369.539062 1792.339844 C 2354.679688 1791.5 2339.890625 1789.230469 2325.050781 1788.789062 C 2309.140625 1788.320312 2293.128906 1790.289062 2277.289062 1789.300781 C 2251.679688 1787.679688 2226.179688 1784.070312 2200.589844 1782.101562 C 2180.359375 1780.550781 2160.050781 1780.210938 2139.78125 1779.320312 C 2119.820312 1778.429688 2099.910156 1777.238281 2079.949219 1776.710938 C 2039.03125 1775.621094 1998.101562 1774.449219 1957.191406 1774.121094 C 1899.078125 1773.660156 1840.96875 1774.359375 1782.878906 1773.660156 C 1759.230469 1773.378906 1735.660156 1770.28125 1712 1769.378906 C 1683.109375 1768.28125 1654.191406 1767.960938 1625.25 1767.609375 C 1565.640625 1766.921875 1506.039062 1766.320312 1446.421875 1765.941406 C 1401.441406 1765.671875 1356.398438 1766.839844 1311.429688 1765.5 C 1230.269531 1763.070312 1149.160156 1758.960938 1068.011719 1756.128906 C 1037.210938 1755.058594 1006.351562 1755.390625 975.523438 1755.429688 C 925.042969 1755.539062 874.535156 1755.03125 824.089844 1756.390625 C 778.640625 1757.609375 733.28125 1761.921875 687.832031 1763.148438 C 641.699219 1764.390625 595.507812 1763.558594 549.34375 1763.570312 C 501.816406 1763.570312 454.289062 1763.75 406.773438 1763.351562 C 372.765625 1763.058594 338.765625 1761.179688 304.769531 1761.441406 C 270.726562 1761.710938 236.675781 1763.410156 202.652344 1765.179688 C 188.132812 1765.929688 175.695312 1756.039062 174.746094 1741.828125 C 174.570312 1739.191406 171.363281 1736.789062 169.71875 1734.191406 C 164.953125 1726.710938 163.097656 1720.558594 174.867188 1717.578125 C 177.621094 1716.878906 181.132812 1711.300781 180.925781 1708.179688 C 179.796875 1691.089844 180.394531 1689.96875 196.996094 1689.460938 C 199.195312 1689.351562 201.394531 1689.460938 201.96875 1689.460938 C 201.636719 1683.390625 198.90625 1674.589844 201.539062 1672.5 C 205.9375 1668.960938 213.796875 1668.640625 220.140625 1668.808594 C 240.34375 1669.359375 260.515625 1670.761719 280.695312 1671.808594 C 346.207031 1675.179688 411.703125 1678.648438 477.214844 1681.890625 C 542.699219 1685.121094 608.175781 1690.171875 673.695312 1690.738281 C 781.558594 1691.679688 889.445312 1689.699219 997.308594 1688.871094 C 1043.871094 1688.519531 1090.460938 1686.738281 1136.980469 1687.78125 C 1195.480469 1689.089844 1253.929688 1693.179688 1312.429688 1694.859375 C 1332.199219 1695.441406 1352.421875 1700.671875 1372.070312 1692.128906 C 1375.96875 1690.441406 1382.441406 1690.421875 1385.828125 1692.589844 C 1398.628906 1700.730469 1412.441406 1699.851562 1426.558594 1699.96875 C 1507.851562 1700.671875 1589.140625 1702.921875 1670.429688 1702.398438 C 1766.960938 1701.769531 1863.488281 1699.058594 1960 1696.839844 C 1988.730469 1696.179688 2017.410156 1693.261719 2046.140625 1692.980469 C 2107.148438 1692.339844 2168.191406 1691.75 2229.179688 1693.148438 C 2268.589844 1694.070312 2307.921875 1698.980469 2347.320312 1701.269531 C 2364.710938 1702.269531 2382.230469 1700.578125 2399.640625 1701.148438 C 2449.609375 1702.828125 2499.550781 1705.371094 2549.53125 1706.941406 C 2580.21875 1707.921875 2611.019531 1708.800781 2641.691406 1707.519531 C 2653.199219 1707.03125 2658.199219 1709.191406 2658.488281 1721.878906 Z M 2658.488281 1721.878906 "/>
<path fill-rule="evenodd" fill="rgb(0%, 0%, 0%)" fill-opacity="1" d="M 2849.808594 2437.449219 C 2837.53125 2437.449219 2829.019531 2437.449219 2820.359375 2437.449219 C 2823.578125 2442.019531 2827.578125 2446.800781 2830.429688 2452.179688 C 2831.589844 2454.378906 2831.371094 2459.140625 2829.808594 2460.519531 C 2827.761719 2462.339844 2823.339844 2463.28125 2820.699219 2462.371094 C 2784.988281 2450.238281 2748.75 2456.320312 2712.621094 2458.710938 C 2710.46875 2458.851562 2708.25 2459.46875 2706.128906 2459.171875 C 2672.539062 2454.28125 2639.101562 2448 2605.339844 2444.808594 C 2586.898438 2443.078125 2567.96875 2446.75 2549.230469 2447.539062 C 2534.890625 2448.148438 2520.441406 2447.019531 2506.21875 2448.5 C 2473.5 2451.898438 2440.910156 2456.671875 2408.21875 2460.359375 C 2369.320312 2464.738281 2330.300781 2467.890625 2291.488281 2472.839844 C 2249.269531 2478.21875 2207.210938 2485.011719 2165.089844 2491.371094 C 2161.25 2491.941406 2156.890625 2492.910156 2153.980469 2495.210938 C 2130.980469 2513.410156 2106.519531 2509.609375 2081.898438 2500.25 C 2036.761719 2483.089844 1991.371094 2466.480469 1946.960938 2447.550781 C 1930.230469 2440.410156 1915.25 2440.75 1898.578125 2444.5 C 1855.28125 2454.269531 1812.058594 2464.75 1768.339844 2472.199219 C 1723.480469 2479.839844 1677.910156 2477.46875 1632.679688 2474.5 C 1590.519531 2471.738281 1548.46875 2467.429688 1506.320312 2464.230469 C 1467.871094 2461.308594 1429.410156 2457.480469 1390.910156 2456.898438 C 1367.171875 2456.550781 1343.390625 2462.53125 1319.519531 2463.929688 C 1289.789062 2465.679688 1259.910156 2466.828125 1230.148438 2466.070312 C 1199.429688 2465.289062 1168.738281 2460.109375 1138.058594 2460.230469 C 1111.789062 2460.339844 1085.570312 2465.519531 1059.289062 2467.871094 C 1027.46875 2470.730469 995.625 2474.140625 963.726562 2475.058594 C 945.964844 2475.570312 928.09375 2471.21875 910.230469 2469.550781 C 873.679688 2466.121094 837.117188 2462.859375 800.523438 2459.828125 C 754.023438 2455.980469 707.535156 2451.980469 660.984375 2448.929688 C 635.652344 2447.28125 610.195312 2447.269531 584.796875 2446.910156 C 580.574219 2446.910156 574.308594 2447.5 572.40625 2450.210938 C 558.867188 2469.550781 537.515625 2469.601562 518.039062 2471.660156 C 479.265625 2475.75 440.21875 2479.890625 401.324219 2479.539062 C 369.382812 2479.25 337.304688 2473.671875 305.652344 2468.25 C 268.679688 2461.921875 231.753906 2457.730469 194.230469 2459.269531 C 187.199219 2459.550781 180.117188 2459.070312 173.074219 2458.648438 C 159.148438 2457.808594 154.074219 2451.730469 155.300781 2437.730469 C 156.273438 2426.5 163.648438 2420.539062 175.386719 2420.75 C 190.738281 2421 206.078125 2420.859375 221.429688 2420.859375 C 221.429688 2419.511719 221.429688 2418.160156 221.429688 2416.820312 C 206.5625 2416.820312 191.6875 2416.320312 176.84375 2416.960938 C 162.773438 2417.570312 153.347656 2412.578125 150.902344 2402.121094 C 148.4375 2391.519531 152.351562 2385.519531 163.269531 2386.089844 C 187.820312 2387.390625 212.332031 2389.25 236.859375 2391.050781 C 282.882812 2394.441406 328.851562 2398.75 374.917969 2401.140625 C 405.269531 2402.71875 435.828125 2400.441406 466.179688 2402.089844 C 492.054688 2403.511719 517.851562 2407.519531 543.503906 2411.5 C 554.933594 2413.269531 562.4375 2411.960938 568.164062 2400.5 C 581.625 2373.621094 598.382812 2349.101562 622.289062 2329.941406 C 654.761719 2303.929688 693.6875 2295.441406 733.070312 2288.140625 C 752.34375 2284.570312 771.964844 2282.621094 791.050781 2278.300781 C 804.632812 2275.21875 814.371094 2279.359375 822.429688 2289.359375 C 834.265625 2304.019531 845.574219 2319.121094 857.410156 2333.800781 C 882.3125 2364.691406 917.226562 2379.929688 952.242188 2395.710938 C 982.171875 2409.191406 1012.96875 2409.769531 1044.828125 2410.191406 C 1081.230469 2410.671875 1117.660156 2414.710938 1153.910156 2418.691406 C 1192.441406 2422.910156 1230.359375 2418.96875 1268.28125 2413.320312 C 1303.421875 2408.070312 1338.339844 2399.429688 1373.628906 2397.628906 C 1424.019531 2395.050781 1474.671875 2398.289062 1525.160156 2397.140625 C 1550.898438 2396.550781 1576.570312 2392.078125 1602.238281 2388.929688 C 1630.949219 2385.410156 1659.628906 2381.570312 1688.289062 2377.558594 C 1711.71875 2374.269531 1735.609375 2372.519531 1758.378906 2366.558594 C 1799.839844 2355.730469 1838.101562 2362.089844 1873.089844 2384.890625 C 1903.308594 2404.601562 1935.609375 2405.53125 1969.328125 2401.820312 C 1995.878906 2398.890625 2022.460938 2396.089844 2049.011719 2393.148438 C 2068.128906 2391.039062 2087.210938 2387.378906 2106.359375 2386.910156 C 2132.078125 2386.25 2157.949219 2386.800781 2183.601562 2388.980469 C 2229.039062 2392.75 2274.289062 2399.089844 2319.738281 2402.410156 C 2360.570312 2405.398438 2401.578125 2406.140625 2442.53125 2407.140625 C 2470.089844 2407.820312 2497.769531 2408.410156 2525.269531 2406.890625 C 2556.640625 2405.160156 2587.871094 2400.800781 2619.191406 2398.03125 C 2638.949219 2396.289062 2658.761719 2395.339844 2678.558594 2394.058594 C 2712.660156 2391.871094 2747.078125 2388.128906 2780.449219 2397.78125 C 2800.628906 2403.609375 2819.890625 2412.839844 2839.148438 2421.488281 C 2842.839844 2423.109375 2844.488281 2429.179688 2849.769531 2437.511719 Z M 928.28125 2418.019531 C 928.566406 2416.878906 928.84375 2415.75 929.132812 2414.628906 C 925.097656 2412.25 921.03125 2409.941406 917.027344 2407.5 C 900.671875 2397.460938 882.511719 2389.390625 868.410156 2376.820312 C 848.601562 2359.140625 832.210938 2337.691406 813.476562 2318.71875 C 808.171875 2313.359375 799.574219 2307.570312 792.832031 2307.960938 C 773.851562 2309.089844 754.664062 2311.859375 736.308594 2316.75 C 716.222656 2322.070312 696.882812 2330.28125 677.363281 2337.640625 C 640.203125 2351.671875 618.296875 2380.339844 601.839844 2418.011719 C 711.648438 2418.011719 819.964844 2418.011719 928.28125 2418.011719 Z M 2164.359375 2453.648438 C 2109.679688 2449.660156 2058.21875 2445.910156 2006.769531 2442.148438 C 2006.398438 2443.210938 2006.039062 2444.269531 2005.660156 2445.328125 C 2037.179688 2455.46875 2068.609375 2465.890625 2100.308594 2475.429688 C 2105.191406 2476.910156 2111.710938 2475.210938 2116.839844 2473.28125 C 2131.761719 2467.660156 2146.371094 2461.171875 2164.359375 2453.648438 Z M 1585.710938 2435.660156 C 1585.609375 2437.28125 1585.578125 2438.921875 1585.53125 2440.550781 C 1655.269531 2445.011719 1724.96875 2448.46875 1794 2434.070312 C 1794 2432.820312 1793.890625 2431.550781 1793.878906 2430.289062 C 1724.5 2432.089844 1655.101562 2433.878906 1585.710938 2435.660156 Z M 1837.5 2400.808594 C 1813.589844 2387.898438 1789.878906 2394.941406 1766.160156 2400.808594 C 1789.941406 2400.808594 1813.730469 2400.808594 1837.5 2400.808594 Z M 2134.078125 2415.960938 C 2133.96875 2417.300781 2133.871094 2418.640625 2133.769531 2419.980469 C 2152.539062 2421.070312 2171.308594 2422.148438 2190.089844 2423.261719 C 2190.199219 2422.179688 2190.199219 2421.109375 2190.25 2420.019531 C 2171.53125 2418.660156 2152.820312 2417.308594 2134.078125 2415.960938 Z M 2134.078125 2415.960938 "/>
<path fill-rule="evenodd" fill="rgb(0%, 0%, 0%)" fill-opacity="1" d="M 2832.851562 1158.449219 C 2830.25 1172.441406 2827.078125 1182.21875 2812.640625 1180.609375 C 2811.480469 1180.480469 2809.730469 1181.039062 2808.988281 1181.898438 C 2794.96875 1198.070312 2777.230469 1192.511719 2759.738281 1191.25 C 2736.039062 1189.539062 2712.25 1189.121094 2688.519531 1188.660156 C 2657.71875 1188.058594 2626.921875 1187.738281 2596.109375 1187.660156 C 2523.140625 1187.441406 2450.160156 1188.390625 2377.21875 1187.058594 C 2314.28125 1185.910156 2251.378906 1182.101562 2188.460938 1179.808594 C 2153.648438 1178.539062 2118.808594 1177.558594 2083.96875 1177.191406 C 2043.960938 1176.78125 2003.671875 1174.269531 1963.980469 1177.890625 C 1896.488281 1184.019531 1829.808594 1171.691406 1762.679688 1173.28125 C 1738.101562 1173.851562 1713.519531 1175.660156 1688.960938 1175.210938 C 1674.398438 1174.941406 1659.78125 1171.941406 1645.390625 1169.148438 C 1603.890625 1161.121094 1562.359375 1164.621094 1520.519531 1165.761719 C 1440.390625 1167.929688 1360.171875 1166.558594 1279.980469 1166.46875 C 1242.230469 1166.46875 1204.460938 1166.359375 1166.71875 1165.621094 C 1126.71875 1164.828125 1086.730469 1162.890625 1046.71875 1162.140625 C 1029.730469 1161.808594 1012.710938 1163.808594 995.722656 1163.691406 C 970.390625 1163.519531 945.078125 1162.070312 919.757812 1161.769531 C 870.074219 1161.210938 820.394531 1161.210938 770.722656 1160.699219 C 728.558594 1160.261719 686.382812 1159.269531 644.214844 1158.808594 C 594.257812 1158.269531 544.289062 1158.429688 494.328125 1157.558594 C 449.554688 1156.769531 404.804688 1154.628906 360.039062 1153.839844 C 337.238281 1153.441406 314.414062 1154.828125 291.589844 1155.148438 C 259.949219 1155.578125 228.292969 1156.109375 196.660156 1155.769531 C 190.304688 1155.660156 183.992188 1151.910156 175.515625 1149.140625 C 182.921875 1148.359375 188.347656 1147.789062 193.773438 1147.230469 C 193.953125 1145.898438 194.128906 1144.558594 194.304688 1143.230469 C 188.890625 1142.070312 183.109375 1141.710938 178.167969 1139.488281 C 173.792969 1137.519531 168.035156 1133.96875 167.214844 1130.191406 C 166.53125 1127.039062 171.292969 1120.539062 175.085938 1118.929688 C 208.730469 1104.589844 244.828125 1107.25 280.171875 1105.101562 C 334.121094 1101.828125 388.082031 1098.460938 442.085938 1096.371094 C 472.003906 1095.210938 502 1096.480469 531.964844 1096.800781 C 560.890625 1097.128906 589.824219 1097.191406 618.726562 1098.238281 C 655.136719 1099.570312 691.488281 1102.75 727.882812 1103.320312 C 756.113281 1103.769531 784.386719 1100.910156 812.644531 1100.46875 C 846.300781 1099.941406 879.96875 1100.359375 913.632812 1100.46875 C 964.488281 1100.589844 1015.339844 1100.019531 1066.171875 1101.089844 C 1128.109375 1102.390625 1189.980469 1105.640625 1251.921875 1107.019531 C 1287.148438 1107.800781 1322.449219 1105.300781 1357.640625 1106.421875 C 1432.460938 1108.808594 1507.210938 1113.210938 1582.019531 1115.660156 C 1668.339844 1118.460938 1754.699219 1120.320312 1841.058594 1122.058594 C 1884.210938 1122.921875 1927.390625 1122.800781 1970.539062 1122.738281 C 2028.71875 1122.628906 2086.890625 1122.859375 2145.03125 1121.820312 C 2201.890625 1120.859375 2258.710938 1117.210938 2315.539062 1117.378906 C 2356.878906 1117.5 2398.199219 1121.988281 2439.558594 1124.429688 C 2459.449219 1125.609375 2479.410156 1125.898438 2499.238281 1127.820312 C 2516.191406 1129.460938 2532.910156 1133.621094 2549.871094 1135.289062 C 2574.320312 1137.710938 2599 1137.851562 2623.371094 1140.78125 C 2680.949219 1147.699219 2738.550781 1152.75 2796.660156 1151.429688 C 2808.429688 1151.148438 2820.320312 1155.878906 2832.851562 1158.449219 Z M 780.25 1124.710938 C 780.25 1127.070312 780.25 1129.421875 780.25 1131.789062 C 927.859375 1133.539062 1075.480469 1135.308594 1223.089844 1137.078125 C 1223.089844 1134.621094 1223.199219 1132.171875 1223.199219 1129.71875 C 1075.570312 1128.050781 927.9375 1126.378906 780.285156 1124.710938 Z M 2428.511719 1152.570312 C 2377.28125 1145.859375 2162.289062 1146.269531 2136.921875 1152.570312 C 2234.449219 1152.570312 2331.480469 1152.570312 2428.511719 1152.570312 Z M 2435.421875 1162.011719 C 2435.421875 1163.519531 2435.308594 1165.019531 2435.269531 1166.539062 C 2482.289062 1168.300781 2529.320312 1170.058594 2576.351562 1171.828125 C 2576.460938 1170.269531 2576.46875 1168.71875 2576.519531 1167.160156 C 2529.78125 1156.871094 2482.5 1162.28125 2435.421875 1162.011719 Z M 1432.480469 1138.96875 C 1432.480469 1137.820312 1432.589844 1136.671875 1432.589844 1135.519531 C 1370.140625 1135.519531 1307.679688 1135.519531 1245.238281 1135.519531 C 1245.238281 1136.671875 1245.238281 1137.820312 1245.238281 1138.96875 C 1307.671875 1138.96875 1370.109375 1138.96875 1432.539062 1138.96875 Z M 670.863281 1126.601562 C 671.0625 1125.808594 671.25 1125 671.449219 1124.210938 C 603.785156 1124.210938 536.121094 1124.210938 468.457031 1124.210938 C 468.457031 1125.011719 468.34375 1125.808594 468.34375 1126.601562 C 535.84375 1126.601562 603.34375 1126.601562 670.839844 1126.601562 Z M 2347.789062 1164.578125 C 2347.910156 1163.699219 2348.03125 1162.828125 2348.148438 1161.960938 C 2332.960938 1161.960938 2317.769531 1161.960938 2302.589844 1161.960938 C 2302.589844 1162.828125 2302.578125 1163.699219 2302.578125 1164.578125 C 2317.640625 1164.578125 2332.710938 1164.578125 2347.789062 1164.578125 Z M 2347.789062 1164.578125 "/>
<path fill-rule="evenodd" fill="rgb(0%, 0%, 0%)" fill-opacity="1" d="M 2812.800781 526.128906 C 2798.679688 526.128906 2784.539062 525.820312 2770.441406 526.25 C 2741.789062 527 2713.140625 529.058594 2684.5 528.820312 C 2651.230469 528.539062 2617.988281 525.820312 2584.730469 525.21875 C 2565.011719 524.859375 2545.261719 526.808594 2525.519531 527.191406 C 2514.660156 527.421875 2503.769531 526.410156 2492.890625 526.191406 C 2449.628906 525.351562 2406.371094 524.230469 2363.101562 523.929688 C 2322.351562 523.640625 2281.601562 524.300781 2240.839844 524.421875 C 2202.191406 524.53125 2163.539062 524.308594 2124.878906 524.53125 C 2095.410156 524.679688 2065.921875 525.871094 2036.460938 525.359375 C 1984.980469 524.480469 1933.480469 523.089844 1882.011719 521.089844 C 1800.710938 517.921875 1719.449219 512.671875 1638.128906 511.078125 C 1594.429688 510.230469 1550.640625 515.410156 1506.859375 517.441406 C 1485.820312 518.410156 1464.71875 518.199219 1443.648438 518.851562 C 1429.210938 519.308594 1414.808594 520.71875 1400.371094 520.960938 C 1351.128906 521.78125 1301.878906 522.980469 1252.640625 522.648438 C 1217.140625 522.421875 1181.648438 519.261719 1146.140625 518.738281 C 1093.109375 517.960938 1040.039062 517.878906 987.011719 518.371094 C 946.183594 518.761719 905.367188 521.371094 864.539062 521.371094 C 832 521.371094 799.484375 518.460938 766.933594 517.78125 C 744.59375 517.308594 722.246094 518.398438 699.910156 518.808594 C 655.851562 519.609375 611.785156 520.648438 567.730469 521.191406 C 521.398438 521.75 475.042969 522.660156 428.722656 521.878906 C 383.871094 521.121094 339.074219 518.300781 294.234375 516.550781 C 263.460938 515.351562 232.691406 514.429688 201.910156 513.378906 C 201.027344 513.378906 199.996094 513.660156 199.28125 513.269531 C 195.089844 511.28125 190.957031 509.148438 186.8125 507.058594 C 190.835938 505.058594 194.902344 501.269531 198.890625 501.328125 C 235.289062 501.949219 271.695312 502.691406 308.046875 504.480469 C 348.300781 506.480469 388.46875 510.28125 428.734375 512.03125 C 452.019531 513.050781 475.429688 511.890625 498.761719 511.070312 C 522.867188 510.21875 546.941406 507.71875 571.046875 507.609375 C 587.792969 507.5 604.546875 511.421875 621.292969 511.460938 C 645.34375 511.460938 669.394531 508.828125 693.433594 508.808594 C 751.4375 508.808594 809.429688 509.910156 867.421875 509.960938 C 894.203125 509.960938 920.984375 508.300781 947.765625 507.890625 C 975.066406 507.460938 1002.46875 508.941406 1029.691406 507.300781 C 1080.160156 504.261719 1130.28125 507.53125 1180.578125 511.148438 C 1209.238281 513.199219 1238.261719 509.898438 1267.128906 509.628906 C 1299.558594 509.351562 1331.988281 510.148438 1364.421875 509.78125 C 1402.929688 509.320312 1441.488281 509.050781 1479.929688 506.988281 C 1515.390625 505.078125 1551.21875 503.53125 1585.96875 496.921875 C 1615.28125 491.339844 1642.78125 500.351562 1671.28125 499.941406 C 1713.769531 499.339844 1756.320312 502.070312 1798.820312 504.070312 C 1821.140625 505.121094 1843.328125 508.371094 1865.640625 509.300781 C 1914.449219 511.339844 1963.28125 513.179688 2012.128906 513.839844 C 2065.511719 514.589844 2118.929688 513.628906 2172.320312 513.960938 C 2207.339844 514.191406 2242.339844 515.898438 2277.339844 515.878906 C 2293.078125 515.871094 2308.789062 512.210938 2324.539062 512 C 2352.078125 511.621094 2379.648438 512.910156 2407.199219 512.96875 C 2422.980469 512.96875 2438.761719 511.710938 2454.550781 511.679688 C 2463.269531 511.679688 2471.980469 513.5 2480.71875 513.660156 C 2536.480469 514.648438 2592.269531 515.53125 2648.039062 516.199219 C 2673.179688 516.5 2698.5 518.011719 2723.429688 515.628906 C 2749.058594 513.191406 2774.441406 513.640625 2799.949219 514.890625 C 2804.410156 515.121094 2808.78125 517.558594 2813.191406 518.96875 C 2813.058594 521.359375 2812.921875 523.75 2812.800781 526.128906 Z M 2812.800781 526.128906 "/>
</svg>
