<svg xmlns="http://www.w3.org/2000/svg">
  	<symbol id="logo" viewBox="0 0 374 374">
		<g id="logo" transform="translate(69.000000, 31.000000)">
                <g>
                    <path d="M2.71970491,9.67045403 C42.962111,3.47994339 82.3888764,0.384688066 121.000001,0.384688066 C159.611124,0.384688066 199.037887,3.47994306 239.280292,9.67044704 C240.606918,9.87452264 241.586065,11.013973 241.586065,12.3537161 L241.586065,166.817188 C241.586065,176.660552 239.977108,186.437983 236.822593,195.764213 C229.252543,218.144846 218.238625,238.915001 203.780838,258.074678 C186.085032,281.525428 157.928709,300.974027 119.311869,316.420475 C118.649803,316.685297 117.910011,316.679972 117.25184,316.405648 C84.7959712,302.878111 58.4576489,283.434454 38.2368732,258.074678 C21.8744304,237.553809 10.530178,216.720135 4.2041164,195.573655 C1.69067344,187.171829 0.413937709,178.450012 0.413937709,169.681653 L0.413935304,12.3537194 C0.413935304,11.0139782 1.39308049,9.87452937 2.71970491,9.67045403 Z M126.540183,72.9230735 C121.150882,76.2667802 115.906403,81.0103619 110.806747,87.1538187 C103.157262,96.3690038 98.3466516,118.00959 98.5529222,125.338945 C99.1071389,145.031768 106.740131,161.623297 109.232728,175.281496 C111.310857,178.09346 114.318167,178.09346 118.254658,175.281496 C116.309085,156.729554 116.309085,137.746874 118.254658,118.333455 C120.200232,98.9200357 122.962074,83.7832419 126.540183,72.9230735 Z M92.6612637,121.041961 C89.9010298,123.983048 87.4601773,127.760229 85.338706,132.373504 C82.1564992,139.293417 82.7633997,153.378879 84.0965149,157.847292 C87.678386,169.853213 95.0982224,178.788874 98.877532,186.768718 C100.616956,188.154027 102.464323,187.659027 104.419632,185.283717 C100.170849,174.207646 97.0463179,162.546736 95.0460378,150.300987 C93.0457578,138.055239 92.250833,128.30223 92.6612637,121.041961 Z M150.800036,195.812171 C154.16334,157.909783 157.480377,127.15811 160.751148,103.557153 C164.021919,79.9561948 173.491733,52.6038107 189.160589,21.5 C163.467936,30.8983753 145.516608,46.431003 135.306606,68.0978831 C129.83433,79.7107264 127.098192,117.293748 127.098192,180.846948 C109.07814,188.234922 94.5505192,196.476108 83.5153303,205.570506 C72.4801414,214.664903 62.4037251,226.700569 53.2860814,241.677504 C64.816946,228.073143 79.3587036,216.852278 96.9113542,208.014909 C114.464005,199.177541 132.426899,195.109961 150.800036,195.812171 Z" id="path-1"></path>
                </g>
            </g>
    </symbol>
</svg>
