<svg id="logo" xmlns="http://www.w3.org/2000/svg" viewBox="0 0 1500 1000">
  <style>.main{fill:#000;}.accent{fill:#88c0c2;}</style>
  <title>logo</title>
  <path class="accent"  d="M838.857+453.036C884.086+453.036+920.766+487.885+920.766+530.9C920.766+573.9+884.086+608.764+838.842+608.764C793.612+608.764+663.224+530.9+663.224+530.9C663.224+530.9+793.612+453.036+838.857+453.036Z"/>
  <path class="main" d="M809.76 216.6a302.2 302.2 0 0 0-17.94.37c-57.67 2.94-119.58 19.54-179.6 62.54-96.41 69.07-125.06 173.23-127.37 237.3-.31 8.75-.28 12.12-.22 13.73 0 .16-.1 5.69.22 14.43 2.31 64.08 30.96 168.24 127.38 237.32 60 43 121.92 59.6 179.59 62.53 97.64 4.96 166.06-38.55 188.66-55.97 15.44-11.91 52.63-52.27 23.43-89.78-29.2-37.52-85.71-14.47-85.71-14.47S826 743 732.63 705.29C645.68 670.16 623.7 561.44 623.7 561.44l-64.85-30.9 64.85-30.2s21.98-108.71 108.93-143.83C826 318.79 918.2 377.19 918.2 377.19s56.5 23.05 85.71-14.47c29.2-37.5-7.99-77.86-23.43-89.78-21.19-16.33-82.67-55.59-170.72-56.34Z"/>
  <path class="accent" d="M1159.25 309.08a42.9 42.9 0 0 0-29.92 13.61 42.73 42.73 0 0 0 2.15 60.52l125.26 125.8s9 8.5 9 21.89c0 13.4-8.24 20.84-8.24 20.84l-127.03 126.85a42.73 42.73 0 0 0-2.15 60.52 43.03 43.03 0 0 0 60.7 2.13l187.5-174.2c9.19-8.55 17.65-20.94 17.94-36.14.3-15.2-5.39-25.46-16.91-36.16l-187.52-174.2a42.82 42.82 0 0 0-30.78-11.46Zm-818.4 0a42.92 42.92 0 0 1 29.93 13.61 42.73 42.73 0 0 1-2.15 60.52l-125.26 125.8s-9 8.5-9 21.89c0 13.4 8.24 20.84 8.24 20.84l127.03 126.85a42.73 42.73 0 0 1 2.15 60.52 43.04 43.04 0 0 1-60.7 2.13l-187.5-174.2c-9.2-8.55-17.65-20.94-17.94-36.14-.3-15.2 5.39-25.46 16.9-36.16l187.52-174.2a42.84 42.84 0 0 1 30.78-11.46Z"/>
</svg>
