<?xml version="1.0" encoding="UTF-8" standalone="no"?>
<svg id="svg3378" xmlns:rdf="http://www.w3.org/1999/02/22-rdf-syntax-ns#" xmlns="http://www.w3.org/2000/svg" xml:space="preserve" height="133.27" width="300" version="1.1" xmlns:cc="http://creativecommons.org/ns#" viewBox="0 0 299.99999 133.2719" xmlns:dc="http://purl.org/dc/elements/1.1/"><metadata id="metadata3384"><rdf:RDF><cc:Work rdf:about=""><dc:format>image/svg+xml</dc:format><dc:type rdf:resource="http://purl.org/dc/dcmitype/StillImage"/><dc:title/></cc:Work></rdf:RDF></metadata><defs id="defs3382"><clipPath id="clipPath3396" clipPathUnits="userSpaceOnUse"><path id="path3398" d="m0 595.28h841.89v-595.28h-841.89v595.28z"/></clipPath></defs><g id="g3386" transform="matrix(1.25 0 0 -1.25 -170.08 348.76)"><g id="g3388" transform="matrix(.42014 0 0 .42014 281.05 259.93)"><path id="path3390" d="m0 0h-37.335v-161.58h114.67v31.465h-77.334l-0.001 130.12z" fill="#6b6b6b"/></g><g id="g3392" transform="matrix(.42014 0 0 .42014 79.361 100.43)"><g id="g3394" clip-path="url(#clipPath3396)"><g id="g3400" transform="translate(639.51 279.65)"><path id="path3402" d="m0 0h30.389v-28.252c-5.597-2.143-16.518-4.277-26.918-4.277-33.607 0-44.807 17.08-44.807 51.736 0 33.064 10.663 52.533 44.262 52.533 18.677 0 29.332-5.867 38.129-17.07l23.213 21.334c-14.145 20.256-38.945 26.396-62.144 26.396-52.258 0-79.728-28.527-79.728-82.921 0-54.139 24.799-83.467 79.464-83.467 25.066 0 49.603 6.402 62.931 15.728v78.397l-64.791-0.002v-30.135z" fill="#6b6b6b"/></g><g id="g3404" transform="translate(261.86 173.19)"><path id="path3406" d="m0 0c69.033 0 124.99 55.988 124.99 124.99 0 69.035-55.96 124.97-124.99 124.97-69.027 0-124.99-55.932-124.99-124.97 0-69.002 55.963-124.99 124.99-124.99" fill="#a50034"/></g><g id="g3408" transform="translate(256.89 353.04)"><path id="path3410" d="m0 0v-109.56h34.82v9.772h-24.89v99.788h-9.93z" fill="#fff"/></g><g id="g3412" transform="translate(221.95 323.12)"><path id="path3414" d="m0 0c8.292 0 15.008 6.725 15.008 14.975 0 8.275-6.716 14.998-15.008 14.998-8.24 0-14.964-6.723-14.964-14.998 0-8.25 6.724-14.975 14.964-14.975" fill="#fff"/></g><g id="g3416" transform="translate(266.82 402.76)"><path id="path3418" d="m0 0c-1.263 0.053-3.755 0.084-4.965 0.084-57.649 0-104.58-46.943-104.58-104.62 0-27.93 10.838-54.203 30.577-73.943 19.811-19.784 46.093-30.645 74.004-30.645 27.919 0 54.2 10.861 74 30.645 19.743 19.74 30.586 46.013 30.586 73.943v4.771l-4.18-0.021h-70.486v-9.719h64.735v-1.406c-3.328-49.326-44.509-88.449-94.655-88.449-25.313 0-49.11 9.863-67.038 27.771-17.929 17.901-27.794 41.717-27.794 67.053 0 25.332 9.865 49.148 27.794 67.057 17.928 17.933 41.725 27.794 67.038 27.794 1.15 0 3.823-0.029 4.965-0.06l-0.009 9.75z" fill="#fff"/></g></g></g></g></svg>
