<svg xmlns="http://www.w3.org/2000/svg" viewBox="0 0 390.5 68.49">
  <path d="M49.06 28.75c.15-5.4 3.04-8.57 7.59-8.57 4.53 0 7.41 3.17 7.57 8.57H49.06zm23.72 6.27V31.2c0-9.38-5.71-18-15.99-17.93-10.65 0-17.03 7.87-17.03 20.25 0 12.4 6.38 20.3 16.58 20.3 7.57 0 12.84-2.4 16.44-7.97l-6.76-4.22c-2.34 2.7-4.38 4.67-8.78 4.67-4.39 0-8.03-3.17-8.18-11.3h23.72zm55.06 24.46c1.43.3 2.56.3 3.91.3 3.24 0 5.05-.9 6.18-3.08.9-1.88 1.5-3 1.5-4.6 0-1.42-.75-3.08-1.2-4.66l-10.47-33.42h9.42l6.47 24.08h.15l6.7-24.08h9.33l-12.35 39.22c-4.14 11.2-7.45 14.18-15.12 14.18-2.26 0-3.4-.16-4.52-.3v-7.64zM79.44 44.8c0 5.57 2.7 9.03 9.6 9.03 2.56 0 4.82-.3 7.38-.6v-7.68c-1.35.3-2.86.76-4.3.76-2.33 0-3.38-.62-3.38-2.72V21.53h17.48V44.8c0 5.58 2.7 9.04 9.6 9.04 2.56 0 4.83-.3 7.39-.6v-7.68c-1.36.3-2.86.76-4.3.76-2.33 0-3.38-.61-3.38-2.72V21.53h7.68v-7.51h-7.68V1.07h-9.3v12.95h-17.5V1.07h-9.3V44.8zm92.33 8.26h-4.52v-39.1h4.52v39.1zm-4.51-51.84h4.5v6.63h-4.5V1.22zm14.34 51.84v-39.1h4.5v5.87c4-4.21 6.95-6.66 13.05-6.66a9.66 9.66 0 0 1 9.49 7.12c3.54-4.15 7.3-7.12 12.96-7.12 6.85 0 10.32 3.73 10.32 10.58v29.3h-4.53V23.3c0-4.36-2.4-6.55-6.77-6.55-3.47 0-9.2 3.7-11.62 7.47v28.85h-4.5V23.29c0-4.36-2.41-6.55-6.8-6.55-3.46 0-9.18 3.7-11.6 7.47v28.85h-4.5zm82.56-9.27c-3.93 4-9.15 6.47-13.36 6.47-4.1 0-7.03-2.4-7.03-6.69 0-4.96 2.4-8.65 20.39-12.56v12.78zm5.12 9.26c-.46-2.6-.61-5.14-.61-7.11v-20.5c0-8.7-4.22-12.27-13.13-12.27-6.33 0-11.17 2.54-14.56 8.88l3 1.8c2.87-4.53 6.74-7.1 11.4-7.1 6.73 0 9 2.64 9 7.87v2.71c-16.38 3.62-25.13 5.58-25.13 16.27 0 6.51 4.67 10.24 10.78 10.24 6.04 0 9.59-1.8 14.27-5.46l.6 4.67h4.38zm49.5-22.98c.08-5.22 3.46-13.4 11.45-13.33 6.85.08 10.38 5.23 11.28 13.33h-22.73zm27.26 3.56c0-12.12-5.05-20.46-15.67-20.46-9.93 0-16.1 8.2-16.1 20.32 0 13.83 6.46 20.35 16.72 20.35 7.44 0 11.28-2.6 15.5-9.54l-3.68-1.97c-3.93 6.2-6.4 7.93-11.45 7.93-8.89 0-12.58-7.7-12.58-16.63h27.26zm8.58 9.99c3.7 5.29 7.03 6.64 12.15 6.64 4.99 0 8.75-3.24 8.75-7.48 0-11.4-23.07-4.97-23.07-18.94 0-7.4 5.8-10.67 12.43-10.67 6.57 0 10.72 2.54 13.5 7.05l-3.46 2.41c-2.64-3.62-5.52-5.89-10.19-5.89-4.37 0-7.77 2.11-7.77 6.88 0 9.58 23.08 3.92 23.08 19.16 0 7.04-6.48 11.06-13.57 11.06-6.03 0-11.47-2.38-15.15-7.88l3.3-2.34zM24.87 26.82a6.4 6.4 0 0 1-6.4 6.47c-3.99 0-6.76-2.85-6.76-6.47 0-3.6 2.77-6.49 6.76-6.49 3.53 0 6.4 2.88 6.4 6.49M1.79 55.45a8.4 8.4 0 0 0-.35 2.84c.3 6.16 6.86 9.08 17.38 9.08 12.47 0 18.1-6.02 18.1-11.59 0-15.63-25.7-7.05-25.7-13.37 0-2.27 3.23-2.42 7.28-2.42 9.8 0 14.75-5.25 14.75-12.64 0-3.02-.9-5.28-2.1-6.93 1.43-.91 3.84-.91 6.02-.91v-6.27c-4.44-.15-7.38 1.04-9.18 3.44-2.4-2.1-6.3-3.44-9.62-3.44-10.16 0-15.42 6.75-15.42 13.6 0 4.75 2.56 7.75 5.8 10.38-1.74.52-6.1 3.37-6.1 7.13 0 5.1 6.86 7.06 15.44 7.59 6.98.44 10.38 2.2 10.38 4.9 0 1.76-2.16 4.2-8.15 4.37-9.73.26-10.78-2.62-10.16-5.6l-8.37-.16zm290.97-5.27c11.7 0 14.25 3.15 14.25 6.37 0 4.07-4.2 6.68-13.96 6.68-8.1 0-11.85-2.61-11.85-6.45 0-3.37 2.7-6.6 11.56-6.6m18.53-37.67c-3.07 0-5.93 1.2-8.17 3.46a15.65 15.65 0 0 0-9.08-2.71c-9.46 0-15.47 5.48-15.47 14.04 0 4.04 2.1 7.8 5.64 10.2-2.86.6-5.86 3.3-5.86 6.6s2.33 4.51 5.18 5.1v.15c-5.49 2.03-6.84 4.9-6.84 8.25 0 4.66 3.6 9.24 17.04 9.24 13.43 0 17.8-4.88 17.8-10.58 0-6.39-4.9-10.14-16.6-10.14-10.57 0-12.08-1.12-12.08-3.36 0-1.44 1.12-2.86 3.6-3.76 1.95.66 3.83 1.2 6.3 1.2 8.26 0 15.08-4.05 15.08-13.66 0-3.75-1.04-6.07-2.76-8.17 1.56-1.58 4.19-1.8 6.22-1.8V12.5zm-28.21 14.34c0-6.08 3.82-10 10.13-10 6.3 0 10.12 3.17 10.12 10 0 6.75-3.82 9.75-10.12 9.75-5.49 0-10.13-3-10.13-9.75M388.91 10.4a4.6 4.6 0 1 1-9.2-.01 4.6 4.6 0 0 1 9.2 0m-.74 0a3.86 3.86 0 1 0-7.71.01 3.86 3.86 0 1 0 7.71 0m-4.82 2.74h-.74V7.67h2.1c1.21 0 1.76.53 1.76 1.51 0 .97-.63 1.39-1.26 1.53l1.52 2.43h-.84l-1.49-2.43h-1.04v2.43zm.86-3.06c.72 0 1.52.05 1.52-.91 0-.77-.62-.89-1.19-.89h-1.19v1.8h.86z"/>
</svg>