<svg xmlns="http://www.w3.org/2000/svg" xml:space="preserve" viewBox="0 0 300 133.27">
  <defs>
    <clipPath id="a" clipPathUnits="userSpaceOnUse">
      <path d="M0 595.28h841.89V0H0v595.28z"/>
    </clipPath>
  </defs>
  <path fill="#6b6b6b" d="M181.23 23.85h-19.6v84.86h60.22V92.18h-40.62V23.84z"/>
  <g clip-path="url(#a)" transform="matrix(.52518 0 0 -.52518 -70.88 223.22)">
    <path fill="#6b6b6b" d="M639.51 279.65h30.39V251.4c-5.6-2.15-16.52-4.28-26.92-4.28-33.6 0-44.8 17.08-44.8 51.74 0 33.06 10.66 52.53 44.26 52.53 18.67 0 29.33-5.87 38.12-17.07l23.22 21.33c-14.15 20.26-38.95 26.4-62.15 26.4-52.25 0-79.72-28.53-79.72-82.92 0-54.14 24.8-83.47 79.46-83.47 25.07 0 49.6 6.4 62.93 15.73v78.4h-64.79v-30.14z"/>
    <path fill="#a50034" d="M261.86 173.19c69.03 0 124.99 55.99 124.99 124.99 0 69.03-55.96 124.97-124.99 124.97s-124.99-55.93-124.99-124.97c0-69 55.96-124.99 124.99-124.99"/>
    <path fill="#fff" d="M256.89 353.04V243.48h34.82v9.77h-24.89v99.79h-9.93zm-34.94-29.92a15 15 0 0 1 15 14.97 15 15 0 0 1-15 15 15 15 0 0 1 0-29.97"/>
    <path fill="#fff" d="M266.82 402.76c-1.26.05-3.75.08-4.96.08-57.65 0-104.58-46.94-104.58-104.62 0-27.93 10.83-54.2 30.57-73.94a104.05 104.05 0 0 1 74-30.64 104 104 0 0 1 74 30.64 103.86 103.86 0 0 1 30.6 73.94V303l-4.19-.02h-70.48v-9.72h64.73v-1.4c-3.33-49.33-44.5-88.45-94.65-88.45a94.24 94.24 0 0 0-67.04 27.77 94.12 94.12 0 0 0-27.8 67.05 94.15 94.15 0 0 0 27.8 67.06 94.16 94.16 0 0 0 67.04 27.8c1.15 0 3.82-.03 4.96-.06v9.75z"/>
  </g>
</svg>