<?xml version="1.0" standalone="no"?>
<!DOCTYPE svg PUBLIC "-//W3C//DTD SVG 20010904//EN"
 "http://www.w3.org/TR/2001/REC-SVG-20010904/DTD/svg10.dtd">
<svg version="1.0" xmlns="http://www.w3.org/2000/svg"
 width="700.000000pt" height="700.000000pt" viewBox="0 0 700.000000 700.000000"
 preserveAspectRatio="xMidYMid meet">
<metadata>
Created by potrace 1.14, written by Peter Selinger 2001-2017
</metadata>
<g transform="translate(0.000000,700.000000) scale(0.100000,-0.100000)"
fill="#000000" stroke="none">
<path d="M5130 6773 c-629 -176 -1374 -478 -1966 -798 -72 -39 -296 -163 -326
-180 -241 -139 -615 -377 -641 -408 -24 -30 -37 -64 -43 -112 -2 -22 -7 -56
-10 -75 -4 -19 -8 -57 -10 -85 -2 -27 -6 -70 -9 -95 -21 -171 -37 -398 -40
-550 -2 -175 25 -259 95 -299 76 -42 137 -33 230 35 116 85 499 344 695 470
345 222 817 471 1275 671 125 55 394 163 406 163 3 0 20 7 37 15 76 35 636
212 731 231 10 2 80 17 155 35 75 17 143 32 151 34 8 1 31 5 50 9 19 3 46 8
60 11 14 3 72 12 130 21 141 20 164 29 204 75 39 46 50 95 34 156 -12 51 -58
95 -234 228 -229 174 -501 330 -754 433 -100 41 -121 43 -220 15z"/>
<path d="M5375 5004 c-37 -21 -72 -60 -84 -95 -10 -30 -7 -101 14 -289 2 -19
7 -69 10 -110 4 -41 8 -91 10 -110 3 -33 14 -209 21 -350 4 -79 3 -701 -1
-785 -5 -107 -17 -309 -20 -345 -2 -19 -6 -71 -9 -115 -4 -44 -9 -96 -11 -115
-3 -19 -7 -60 -10 -90 -8 -76 -15 -140 -20 -170 -2 -14 -7 -45 -10 -70 -10
-89 -16 -127 -40 -265 -31 -179 -33 -190 -45 -250 -6 -27 -12 -60 -15 -73 -2
-13 -6 -31 -9 -40 -3 -9 -8 -30 -10 -47 -9 -52 -76 -316 -107 -425 -74 -255
-183 -550 -274 -743 -60 -128 -61 -192 -2 -255 53 -57 112 -66 227 -33 290 82
624 233 885 400 120 76 156 112 174 175 128 440 186 682 245 1026 14 80 28
165 31 190 8 55 14 97 20 130 2 14 7 49 10 79 4 30 8 61 10 70 2 14 13 109 20
181 1 14 6 57 9 95 10 94 13 132 21 250 3 55 8 116 10 135 23 220 23 1264 0
1379 -13 62 -45 98 -145 156 -164 96 -483 309 -612 407 -141 107 -148 111
-208 115 -38 2 -64 -2 -85 -13z"/>
<path d="M3915 4592 c-115 -13 -308 -81 -390 -137 -152 -103 -274 -242 -338
-385 -70 -157 -89 -244 -88 -406 1 -386 249 -729 621 -862 191 -68 445 -63
636 14 274 110 482 343 554 623 25 96 30 131 30 241 2 434 -312 814 -743 900
-58 12 -226 19 -282 12z"/>
<path d="M763 4570 c-52 -27 -76 -64 -102 -160 -20 -74 -55 -241 -65 -310 -2
-19 -7 -54 -11 -78 -31 -214 -40 -623 -16 -695 20 -58 339 -374 636 -629 250
-214 601 -482 883 -673 128 -88 412 -273 432 -283 8 -4 92 -53 185 -108 208
-124 186 -112 620 -344 120 -64 148 -62 350 25 17 7 116 48 220 90 105 42 199
80 210 85 11 5 76 32 145 60 69 28 134 55 145 59 11 5 34 14 52 21 114 43 153
170 82 272 -12 17 -70 51 -161 96 -641 314 -745 368 -1008 519 -520 300 -995
631 -1414 986 -162 138 -231 201 -442 412 -203 203 -309 321 -457 510 -50 65
-104 127 -119 138 -40 30 -114 33 -165 7z"/>
</g>
</svg>
