<?xml version="1.0" standalone="no"?>
<!DOCTYPE svg PUBLIC "-//W3C//DTD SVG 20010904//EN"
 "http://www.w3.org/TR/2001/REC-SVG-20010904/DTD/svg10.dtd">
<svg version="1.0" xmlns="http://www.w3.org/2000/svg"
 width="700.000000pt" height="700.000000pt" viewBox="0 0 700.000000 700.000000"
 preserveAspectRatio="xMidYMid meet">
<metadata>
Created by potrace 1.14, written by Peter Selinger 2001-2017
</metadata>
<g transform="translate(0.000000,700.000000) scale(0.100000,-0.100000)"
fill="#000000" stroke="none">
<path d="M3359 6820 c-36 -9 -93 -31 -126 -49 -84 -45 -109 -72 -503 -541 -90
-107 -171 -204 -181 -215 -30 -34 -102 -118 -145 -170 -23 -28 -122 -145 -220
-261 -99 -116 -282 -334 -409 -484 -126 -150 -235 -278 -240 -284 -15 -16
-125 -146 -167 -197 -61 -74 -101 -122 -139 -164 -19 -22 -107 -125 -194 -230
-88 -104 -162 -192 -165 -195 -37 -32 -160 -199 -180 -245 -57 -125 -73 -295
-40 -430 16 -66 83 -202 117 -240 16 -16 48 -55 73 -85 25 -30 47 -57 50 -60
3 -3 25 -30 50 -60 25 -30 47 -57 50 -60 4 -3 64 -75 136 -160 71 -85 139
-166 150 -180 18 -21 93 -109 188 -220 11 -14 55 -66 96 -115 41 -50 77 -92
80 -95 3 -3 28 -32 55 -65 28 -33 60 -71 71 -85 40 -46 208 -246 329 -390 122
-145 290 -345 329 -390 11 -14 55 -66 96 -115 42 -50 85 -101 97 -115 11 -14
53 -63 93 -110 39 -47 79 -94 88 -105 10 -11 53 -63 97 -115 44 -52 82 -97 85
-100 3 -3 25 -30 50 -60 119 -147 195 -205 309 -241 72 -22 217 -27 264 -10
15 6 27 8 27 6 0 -10 105 37 149 67 52 36 87 72 169 173 31 39 59 72 62 75 3
3 25 30 50 60 25 30 47 57 50 60 3 3 23 28 45 55 21 28 42 52 45 55 3 3 46 55
95 115 49 61 154 189 234 285 79 96 160 195 180 219 20 25 50 61 66 80 17 20
71 86 120 146 49 61 92 112 95 115 3 3 19 23 35 45 17 22 33 42 36 45 4 3 114
136 246 296 131 160 339 413 463 564 388 470 456 558 483 618 38 83 58 171 59
255 3 186 -37 283 -190 462 -9 11 -188 225 -397 475 -209 250 -387 464 -396
475 -10 11 -34 40 -54 65 -21 25 -57 68 -80 95 -23 28 -158 190 -300 360 -142
171 -269 324 -284 340 -14 17 -102 122 -196 235 -93 113 -172 207 -175 210 -3
3 -37 43 -75 90 -38 47 -75 90 -80 95 -6 6 -29 33 -50 60 -22 28 -52 64 -66
80 -14 17 -51 59 -80 94 -67 80 -141 132 -231 161 -88 29 -208 33 -299 10z
m149 -330 c4 0 7 -10 8 -22 1 -24 5 -59 30 -243 8 -60 17 -130 19 -155 3 -25
7 -56 10 -70 2 -14 7 -43 9 -65 20 -158 30 -238 41 -315 2 -19 7 -51 9 -70 3
-19 10 -75 16 -125 6 -49 17 -135 25 -190 7 -55 16 -120 19 -145 13 -102 57
-437 60 -465 10 -66 37 -278 57 -430 5 -44 12 -91 14 -105 2 -14 7 -48 10 -76
3 -28 7 -59 9 -70 2 -10 7 -48 11 -84 4 -36 9 -72 10 -81 3 -14 -124 -16
-1386 -16 l-1389 0 22 26 c13 14 25 28 28 31 3 3 78 91 165 195 88 105 162
192 165 195 3 3 27 32 55 65 27 33 54 65 60 71 14 16 41 48 104 123 29 35 58
70 64 76 7 6 28 31 47 55 19 24 40 48 45 54 6 6 121 142 255 301 135 160 255
301 266 315 12 14 88 104 169 200 81 96 159 189 174 205 14 17 60 71 101 120
41 50 77 92 80 95 3 3 41 48 85 100 43 52 86 102 94 111 9 9 32 36 51 60 19
24 86 103 148 176 100 118 118 134 160 147 26 8 53 13 60 10 8 -2 17 -4 20 -4z
m2400 -2793 c51 -66 64 -98 63 -167 0 -78 -23 -133 -87 -212 l-55 -68 -972 0
-972 0 0 250 0 250 991 0 992 0 40 -53z m-2053 -506 c-3 -25 -8 -62 -11 -81
-3 -19 -7 -53 -10 -75 -8 -69 -14 -119 -19 -145 -2 -14 -6 -45 -9 -70 -3 -25
-13 -99 -22 -165 -8 -66 -17 -138 -20 -160 -6 -52 -34 -263 -39 -295 -2 -14
-9 -65 -15 -115 -6 -49 -13 -103 -15 -120 -3 -16 -12 -86 -20 -155 -9 -69 -18
-138 -20 -155 -10 -68 -25 -183 -30 -225 -3 -25 -10 -76 -15 -115 -5 -38 -12
-90 -15 -115 -3 -25 -8 -56 -10 -70 -2 -14 -7 -50 -10 -80 -3 -30 -8 -66 -10
-80 -2 -14 -7 -47 -10 -75 -5 -45 -19 -151 -30 -230 -3 -16 -7 -58 -11 -92 -6
-60 -8 -63 -34 -63 -65 0 -91 24 -290 261 -107 128 -199 237 -205 243 -5 6
-44 51 -85 101 -41 49 -85 101 -97 115 -11 14 -76 90 -143 170 -67 80 -132
156 -144 170 -12 14 -55 66 -96 115 -41 50 -77 92 -80 95 -3 3 -28 32 -55 65
-28 33 -60 71 -71 85 -12 14 -88 104 -169 200 -81 96 -156 186 -168 200 -43
49 -132 155 -149 175 -55 67 -208 248 -248 295 -26 30 -85 100 -131 155 -45
55 -86 102 -89 105 -3 3 -23 27 -44 54 -22 26 -52 62 -68 79 -15 17 -28 34
-28 37 0 4 617 6 1370 7 l1370 0 -5 -46z"/>
</g>
</svg>
