<?xml version="1.0" standalone="no"?>
<!DOCTYPE svg PUBLIC "-//W3C//DTD SVG 20010904//EN"
 "http://www.w3.org/TR/2001/REC-SVG-20010904/DTD/svg10.dtd">
<svg version="1.0" xmlns="http://www.w3.org/2000/svg"
 width="700.000000pt" height="700.000000pt" viewBox="0 0 700.000000 700.000000"
 preserveAspectRatio="xMidYMid meet">
<metadata>
Created by potrace 1.14, written by Peter Selinger 2001-2017
</metadata>
<g transform="translate(0.000000,700.000000) scale(0.100000,-0.100000)"
fill="#000000" stroke="none">
<path d="M3638 6715 c-2 -2 -43 -5 -93 -9 -49 -3 -101 -8 -115 -10 -14 -3 -47
-7 -75 -10 -78 -10 -149 -23 -327 -61 -296 -64 -720 -247 -1063 -458 -499
-308 -792 -613 -1026 -1067 -88 -169 -180 -402 -223 -560 -8 -30 -20 -71 -25
-90 -19 -63 -70 -323 -86 -435 -27 -200 -35 -313 -37 -487 l-1 -138 -204 -182
c-113 -101 -218 -195 -234 -211 -29 -27 -36 -42 -21 -49 4 -1 52 -59 106 -128
55 -69 119 -149 144 -178 l44 -53 37 33 c53 47 67 58 356 296 143 118 280 231
304 251 257 214 456 378 457 377 1 -1 4 -73 8 -161 7 -174 9 -196 31 -300 9
-38 17 -80 19 -92 4 -17 -24 -46 -150 -153 -85 -72 -160 -137 -167 -143 -19
-18 -125 -108 -167 -143 -21 -16 -67 -55 -101 -86 -35 -31 -131 -113 -214
-183 -82 -70 -154 -131 -159 -136 -18 -16 168 -349 304 -544 147 -211 389
-483 534 -600 27 -22 63 -52 80 -66 43 -36 213 -150 261 -176 22 -11 56 -29
75 -40 121 -67 430 -189 642 -252 133 -40 305 -83 388 -97 14 -3 48 -9 75 -14
82 -15 233 -35 345 -45 188 -17 659 -25 890 -15 47 2 132 0 190 -5 183 -14
449 -10 560 9 14 3 54 10 90 16 153 27 323 76 475 136 97 38 356 163 430 207
301 178 587 403 818 640 48 50 87 93 87 97 0 4 -15 19 -34 34 -19 14 -40 31
-48 39 -12 11 -239 203 -281 237 -10 8 -29 24 -41 35 -12 11 -102 88 -201 170
-99 83 -186 157 -195 165 -9 8 -38 33 -65 55 -42 35 -88 73 -170 144 -11 9
-47 39 -80 66 -33 28 -62 52 -65 55 -3 3 -22 20 -43 38 l-38 33 -87 -79 c-48
-43 -106 -93 -130 -111 l-43 -34 -27 24 c-15 13 -29 26 -32 29 -37 37 -183
151 -190 148 -5 -2 -33 -25 -62 -53 -46 -43 -108 -95 -169 -142 -12 -10 -20
-8 -40 10 -136 124 -220 197 -223 197 -3 0 -33 -28 -68 -63 -134 -134 -276
-238 -437 -321 -75 -39 -99 -47 -125 -42 -38 8 -268 121 -353 174 -34 21 -59
43 -55 48 4 6 43 41 87 78 44 37 80 73 80 79 0 12 -296 375 -307 376 -6 1
-112 -85 -188 -152 -14 -13 -52 -45 -85 -72 -33 -28 -62 -53 -65 -56 -3 -3
-92 -78 -198 -167 l-194 -161 -31 22 c-54 37 -182 131 -187 137 -3 3 -44 38
-92 78 l-87 74 32 26 c60 51 80 67 91 77 6 6 67 57 136 115 69 57 127 107 130
110 3 3 43 37 90 75 47 38 87 72 90 75 8 8 537 449 605 503 33 27 74 60 90 75
17 15 58 49 92 77 52 41 60 52 50 65 -16 20 -111 134 -117 140 -3 3 -47 56
-99 118 -51 61 -95 112 -98 112 -3 0 -38 -29 -78 -65 -40 -36 -75 -65 -78 -65
-12 0 49 168 102 281 113 242 324 487 514 597 47 27 46 27 105 1 218 -97 479
-276 601 -411 21 -24 26 -23 75 10 22 16 88 61 145 100 l105 72 35 -32 c19
-18 70 -68 112 -112 42 -43 78 -74 80 -69 2 4 47 44 99 88 52 44 106 90 120
102 14 13 28 23 31 23 3 0 56 -49 117 -110 61 -61 116 -110 121 -110 8 0 35
21 166 132 11 9 124 103 250 209 241 201 320 267 339 284 6 6 79 66 161 135
83 69 161 135 175 146 14 12 59 50 100 84 41 34 76 66 78 70 4 11 -353 372
-425 430 -31 25 -91 70 -134 101 l-79 56 106 83 106 82 -59 35 c-130 79 -416
226 -548 282 -107 46 -341 119 -470 147 -150 32 -126 39 -275 -86 l-132 -112
-141 56 c-132 52 -248 95 -272 100 -44 10 -115 40 -108 45 4 4 20 17 35 28
l27 20 -40 6 c-22 3 -114 6 -205 7 -90 0 -171 3 -178 6 -13 5 -463 13 -468 9z"/>
</g>
</svg>
