<?xml version="1.0" standalone="no"?>
<!DOCTYPE svg PUBLIC "-//W3C//DTD SVG 20010904//EN"
 "http://www.w3.org/TR/2001/REC-SVG-20010904/DTD/svg10.dtd">
<svg version="1.0" xmlns="http://www.w3.org/2000/svg"
 width="700.000000pt" height="700.000000pt" viewBox="0 0 700.000000 700.000000"
 preserveAspectRatio="xMidYMid meet">
<metadata>
Created by potrace 1.14, written by Peter Selinger 2001-2017
</metadata>
<g transform="translate(0.000000,700.000000) scale(0.100000,-0.100000)"
fill="#000000" stroke="none">
<path d="M1735 5789 c-436 -435 -911 -907 -1054 -1050 l-261 -258 0 -982 0
-981 1051 -1049 1050 -1049 962 0 c529 0 971 0 981 0 12 0 237 219 577 560
l558 561 -490 489 -490 489 -558 -560 -558 -559 -1050 1049 -1051 1049 1049
1047 c958 959 1049 1047 1066 1034 9 -8 261 -258 560 -556 l542 -543 486 485
c267 267 485 490 485 495 0 5 -250 259 -555 564 l-555 556 -976 -1 -976 0
-793 -790z"/>
<path d="M6086 3984 l-487 -486 490 -488 c460 -458 491 -487 492 -457 4 185 3
1917 -1 1917 -3 0 -225 -219 -494 -486z"/>
</g>
</svg>
