<?xml version="1.0" standalone="no"?>
<!DOCTYPE svg PUBLIC "-//W3C//DTD SVG 20010904//EN"
 "http://www.w3.org/TR/2001/REC-SVG-20010904/DTD/svg10.dtd">
<svg version="1.0" xmlns="http://www.w3.org/2000/svg"
 width="700.000000pt" height="700.000000pt" viewBox="0 0 700.000000 700.000000"
 preserveAspectRatio="xMidYMid meet">
<metadata>
Created by potrace 1.14, written by Peter Selinger 2001-2017
</metadata>
<g transform="translate(0.000000,700.000000) scale(0.100000,-0.100000)"
fill="#000000" stroke="none">
<path d="M2717 6484 c-1 -1 -65 -5 -142 -8 -77 -3 -151 -8 -165 -10 -14 -3
-65 -10 -115 -16 -247 -31 -503 -106 -722 -211 -474 -227 -808 -605 -1026
-1159 -80 -205 -150 -465 -187 -700 -5 -36 -12 -74 -14 -85 -2 -11 -7 -47 -10
-80 -4 -33 -9 -76 -11 -95 -6 -44 -12 -110 -22 -230 -16 -194 -7 -1001 13
-1103 1 -10 6 -49 9 -87 3 -38 8 -80 11 -92 2 -13 6 -43 9 -68 8 -74 55 -327
73 -394 6 -20 8 -36 6 -36 -3 0 0 -8 5 -18 6 -11 12 -30 15 -43 18 -85 76
-265 113 -349 76 -178 154 -320 242 -444 69 -99 233 -266 326 -335 39 -28 75
-55 80 -59 79 -60 299 -166 449 -217 126 -43 301 -87 396 -100 25 -3 52 -8 60
-10 8 -2 41 -7 73 -10 32 -4 67 -8 77 -10 117 -22 728 -23 990 -1 20 2 76 6
125 10 50 3 110 8 135 11 25 2 74 7 110 10 36 3 97 10 135 15 39 5 95 12 125
15 50 5 210 27 300 41 19 3 51 7 70 10 19 3 89 14 155 25 66 11 134 22 150 25
17 2 50 8 75 14 25 5 108 21 185 35 77 14 148 29 158 32 20 5 20 55 2 673 -2
52 -4 132 -4 178 l-1 82 -27 -4 c-16 -3 -55 -8 -88 -11 -33 -3 -76 -8 -95 -10
-33 -4 -75 -8 -225 -20 -33 -3 -96 -7 -140 -10 -44 -3 -114 -7 -155 -10 -72
-4 -194 -11 -365 -20 -465 -24 -1084 -24 -1285 0 -79 10 -273 52 -340 75 -296
98 -485 287 -593 595 -24 68 -61 209 -71 270 -21 135 -25 175 -31 303 l-6 112
53 0 c29 1 830 1 1781 1 l1727 0 1 37 c1 20 2 48 4 62 12 120 25 261 30 325 6
82 19 223 29 335 13 125 13 341 2 474 -4 39 -8 96 -11 126 -2 30 -7 71 -9 90
-3 19 -8 55 -11 80 -6 59 -32 215 -44 265 -90 376 -178 596 -336 836 -234 357
-560 601 -1005 753 -86 29 -255 70 -350 85 -36 6 -74 13 -85 15 -26 5 -118 17
-158 21 -74 7 -446 22 -450 19z m323 -1048 c115 -22 152 -30 215 -48 265 -76
452 -240 555 -485 48 -115 96 -298 115 -438 4 -27 8 -61 10 -75 9 -66 18 -237
19 -345 l1 -120 -1209 0 -1208 0 6 140 c4 77 9 154 10 170 14 129 21 174 42
280 81 392 223 619 489 782 103 63 280 115 495 146 40 6 422 0 460 -7z"/>
<path d="M5865 2053 c-178 -36 -307 -100 -416 -205 -47 -46 -129 -149 -129
-162 0 -5 -8 -20 -18 -34 -63 -92 -102 -322 -79 -467 50 -324 319 -589 642
-634 63 -9 183 -7 250 4 88 15 236 80 313 138 47 35 161 162 191 210 43 73 79
164 96 241 13 61 14 267 2 315 -80 306 -298 521 -596 587 -33 7 -229 13 -256
7z"/>
</g>
</svg>
