<svg xmlns="http://www.w3.org/2000/svg" viewBox="0 0 256 156">
  <path d="M83.6505 68.8242L83.6505 48.9435L36.2425 48.9435L36.2425 107.057L83.6505 107.057L83.6505 87.1757L56.1233 87.1757L56.1233 68.8242L83.6505 68.8242ZM150.939 48.9435L103.531 48.9435L103.531 69.3468L123.31 87.1758L103.531 87.1758L103.531 107.057L150.939 107.057L150.939 87.6983L132.957 68.8242L150.939 68.8242L150.939 48.9435ZM219.758 48.9435L172.349 48.9435L172.349 69.3468L191.364 87.1758L172.349 87.1758L172.349 107.057L219.758 107.057L219.758 87.6983L201.011 68.8242L219.758 68.8242L219.758 48.9435Z"/>
</svg>