<svg xmlns="http://www.w3.org/2000/svg" viewBox="0 0 256 256">
  <path d="m96.26 152.04-.54 1.63a10.9 10.9 0 0 1-2.72 5.18c-1.64 1.63-4.27 2.45-7.9 2.45-2.73 0-5-.64-6.82-1.91-1.81-1.27-3.72-3.54-5.71-6.81-.73-1.27-1.14-1.9-1.23-1.9-.1 0-2.95 1.72-8.58 5.17l-8.44 5.18.81 1.09c3.82 7.99 9.9 13.34 18.25 16.07 9.26 3.08 18.25 2.9 26.97-.55 9.63-4 15.16-11.9 16.62-23.7.18-1.27.27-14.43.27-39.5V76.86H96.26v75.19zm46.31-67.84c-5.08 5.1-7.62 11.54-7.62 19.35 0 11.44 5.26 20.34 15.8 26.7 2.54 1.63 6.9 3.72 13.07 6.26 7.63 3.27 12.35 5.9 14.17 7.9 3.08 3.27 3.72 6.8 1.9 10.62-.54.91-1.18 1.73-1.9 2.45-2.73 2.73-6.54 4.09-11.45 4.09-8.17 0-14.7-3.63-19.6-10.9-.74-1.27-1.14-1.9-1.23-1.9-.1 0-2.87 1.59-8.31 4.76a201.43 201.43 0 0 0-8.45 5.04c-.18.19.1.82.82 1.91 6.35 10.9 16.43 17.25 30.24 19.07 4.53.72 9.07.72 13.62 0 8.53-1.1 15.25-4 20.15-8.72 5.27-5.08 7.9-11.8 7.9-20.16 0-5.08-1-9.62-3-13.62a22.7 22.7 0 0 0-4.9-7.08c-4.18-4.17-11.53-8.53-22.06-13.08-7.45-3.08-11.99-5.53-13.62-7.35a9.2 9.2 0 0 1-2.45-7.08c.18-2.18.9-4 2.18-5.45 2-2 4.72-3 8.17-3 3.81 0 6.9 1.28 9.26 3.82a13.3 13.3 0 0 1 2.86 3.27c.64 1.09 1.05 1.63 1.23 1.63.36-.18 3.13-1.95 8.3-5.3 5.18-3.37 7.77-5.1 7.77-5.19 0-.09-.54-1.04-1.63-2.86a31.15 31.15 0 0 0-8.45-8.44c-4.36-3.09-9.72-4.8-16.07-5.18a43.26 43.26 0 0 0-6.81 0c-8.17.55-14.8 3.36-19.89 8.45z"/>
</svg>