<svg xmlns="http://www.w3.org/2000/svg" viewBox="0 0 256 256">
  <path fill-rule="evenodd" d="M227.42 136.65c-4.65-.26-8.06 2.38-8.53 7.14-.4 4.04-.26 8.13-.34 12.2-.06 2.59-.04 5.18-.15 7.76-.39 8.77-4.78 13.56-13.46 14.66-2.24.28-4.5.37-6.94.57V170c1.39-.2 2.85-.32 4.27-.64 3.75-.86 5.35-2.68 5.47-6.54.14-4.94 0-9.88.14-14.81.09-2.73.36-5.48.86-8.16.6-3.31 2.71-5.74 5.37-7.63-.05-.26-.03-.49-.12-.55-5.21-3.6-6.04-9.04-6.12-14.75-.08-4.7.02-9.4-.04-14.1-.09-6.33-2.1-8.35-8.48-8.66-.38-.02-.76-.07-1.34-.13v-9c4.95.07 9.77.27 14.12 2.8 4.56 2.65 6 7.1 6.21 11.96.25 5.64.03 11.3.27 16.93.1 2.29.52 4.72 1.46 6.77 1.36 2.95 3.97 4.32 7.35 3.75v9.41zm-172.9 33c-4.2-.45-6.34-2.67-6.58-6.86-.08-1.41-.06-2.82-.09-4.24-.1-5.24-.11-10.5-.36-15.74-.2-4-1.77-7.45-5.08-9.91-.37-.27-.87-.37-1.33-.56 5.41-5.12 6.06-6.14 6.57-13.13a130 130 0 0 0 .17-14.1c-.43-11.17 4.17-10.97 11.67-10.87.21 0 .43.12.92.27v2.71c0 16.31-.05 32.63.03 48.94.03 4.68.55 9.35 4.79 12.43 3.8 2.76 8.22 3.06 12.85 3.2l1.53-9.26c-6.52-1.52-7.65-2.95-7.66-9.3V85.11c-.65-.05-1.02-.12-1.4-.11-6.19.12-12.4.02-18.56.43-9.67.63-14.34 5.54-14.69 15.15-.2 5.56-.07 11.13-.16 16.7-.1 6.36-2.25 9-8.25 10.32-.14.03-.25.18-.3.22v8.6c5.35.64 7.96 3.04 8.34 8.32.35 4.84.09 9.72.25 14.57.11 3.04.17 6.15.86 9.1 1.73 7.38 11.24 12.16 19.74 10.12v-8.66c-1.25-.08-2.26-.1-3.27-.21zm68.61-48.1c-1.86-4.6-4.91-8.15-9.45-10.32-11.6-5.57-25.72-.72-31.13 10.92-4.07 8.77-3.94 17.8-.36 26.7a19.28 19.28 0 0 0 10.66 10.76c9.23 3.9 18.53 2.91 27.8.05.49-.15 1.18-.98 1.12-1.41-.35-2.75-.89-5.47-1.36-8.22-8.5 2.31-12.56 2.7-17.9 1.78-6.6-1.14-11.43-6.84-10.52-12.73h32.9c.85-5.6.09-12.97-1.76-17.53zm-20.32-2.9c6.72-.1 10.9 4.39 10.82 11.82H91.95c-.28-6.22 4.8-11.73 10.86-11.82zm46.16-9.55c-4.57-.36-9.03.43-13.23 2.52-9.44 4.7-9.57 19.22-1.18 24.03 2.5 1.43 5.2 2.52 7.8 3.77 2.82 1.34 5.73 2.53 8.42 4.1 1.8 1.04 2.54 2.93 2.12 5.1-.45 2.25-2.06 3.4-4.12 3.6-2.95.28-5.97.56-8.88.22-3.52-.42-6.95-1.49-10.56-2.3-.47 2.23-.83 4.47-1.43 6.64-.51 1.86-.13 2.75 1.87 3.37 7.13 2.23 14.34 2.45 21.62 1.3 7.16-1.12 12.02-5.42 12.82-11 1.16-8.1-1.4-13-8.73-16.64-1.68-.83-3.42-1.54-5.16-2.26-1.59-.66-3.21-1.23-4.8-1.9-.87-.35-1.7-.8-2.52-1.25-2.16-1.21-3.47-2.97-3.12-5.55.28-2.14 2.04-3.63 4.84-4.13 5.16-.93 10.12.08 15.2 1.85l2.18-9.55c-4.55-.7-8.83-1.58-13.15-1.92zm37.91 0c-4.56-.36-9.02.43-13.22 2.52-9.44 4.7-9.57 19.22-1.18 24.03 2.5 1.43 5.2 2.52 7.8 3.77 2.82 1.34 5.73 2.53 8.42 4.1 1.8 1.04 2.54 2.93 2.11 5.1-.44 2.25-2.05 3.4-4.11 3.6-2.95.28-5.97.56-8.88.22-3.52-.42-6.95-1.49-10.56-2.3-.47 2.23-.83 4.47-1.43 6.64-.51 1.86-.13 2.75 1.87 3.37 7.12 2.23 14.34 2.45 21.62 1.3 7.16-1.12 12.02-5.42 12.82-11 1.16-8.1-1.4-13-8.73-16.64-1.68-.83-3.42-1.54-5.16-2.26-1.59-.66-3.21-1.23-4.8-1.9-.87-.35-1.7-.8-2.52-1.25-2.16-1.21-3.47-2.97-3.12-5.55.28-2.14 2.04-3.63 4.84-4.13 5.16-.93 10.12.08 15.19 1.85l2.18-9.55c-4.54-.7-8.82-1.58-13.14-1.92z" clip-rule="evenodd"/>
</svg>