<?xml version="1.0" encoding="UTF-8" standalone="no"?>
<svg xmlns="http://www.w3.org/2000/svg" viewBox="0 0 256 256">
  <path
     d="m 219.9888,191.31121 c -0.16008,-0.92847 -0.8004,-1.969 -1.95299,-3.12157 a 30.687512,30.687512 0 0 0 -4.96251,-3.79393 c -2.14509,-1.3767 -3.21763,-2.14508 -3.21763,-2.30516 -7.84396,-5.82695 -12.83849,-9.44478 -14.98357,-10.83747 -1.07254,-0.60831 -2.9615,-1.44074 -5.63485,-2.52929 a 117.75552,117.75552 0 0 1 -4.49827,-1.84092 c -0.76839,-0.30416 -2.41722,-0.88045 -4.96252,-1.72888 a 64.416559,64.416559 0 0 1 -6.56331,-2.52929 8.6923936,8.6923936 0 0 1 -3.68186,-2.65734 c -2.7694,-4.00201 -6.30719,-11.12561 -10.59735,-21.43483 -0.92848,-2.44924 -2.57731,-6.29117 -4.96252,-11.52583 -2.3852,-5.20263 -4.11407,-9.12461 -5.18661,-11.73393 -0.46423,-1.07254 -1.07254,-2.84944 -1.84093,-5.29867 a 32.320337,32.320337 0 0 0 -2.30517,-5.76292 C 133.43305,81.159533 117.98523,62.958332 98.327297,49.591576 90.803495,44.533019 83.647879,40.915191 76.892464,38.770106 75.35569,38.145791 72.89044,37.777604 69.52874,37.617523 a 56.02832,56.02832 0 0 1 -7.379726,-0.688347 h -2.993513 c -1.072543,-0.480243 -2.465246,-1.456737 -4.162104,-3.009521 a 29.022669,29.022669 0 0 0 -2.977505,-2.529279 73.253027,73.253027 0 0 0 -14.51934,-8.068078 c -4.930491,-2.145084 -8.068078,-2.609319 -9.444773,-1.376696 -1.08855,0.320162 -1.76089,0.992502 -2.081052,2.081052 -0.768388,1.376696 -0.544275,3.601821 0.688347,6.675374 0.624317,1.536777 1.392705,2.961497 2.305166,4.258152 l 3.10557,4.386218 a 69.667214,69.667214 0 0 0 2.657344,3.569803 c 4.002023,5.987027 6.531301,10.133123 7.603843,12.438288 1.232623,3.073553 2.7694,7.763924 4.61033,14.055104 1.840931,6.307188 3.297666,10.837478 4.370209,13.606878 a 72.964881,72.964881 0 0 0 5.5388,10.357235 l 2.529278,2.7694 a 11.253688,11.253688 0 0 1 2.7694,4.370204 c 0.608307,0.48025 0.768388,1.69686 0.464234,3.68187 a 40.980714,40.980714 0 0 1 -1.040525,4.9625 c -0.384195,1.31267 -0.960487,2.9615 -1.728875,4.96251 a 116.42685,116.42685 0 0 0 -1.376695,3.68186 70.963869,70.963869 0 0 0 -2.305165,21.88306 c 0.304153,8.00405 1.536776,14.90353 3.68186,20.7465 0.160081,0.16007 0.352178,0.57628 0.576292,1.26463 l 0.464234,1.3767 a 17.977086,17.977086 0 0 0 1.26464,2.7694 c 0.16008,0.22411 0.384194,0.62431 0.688347,1.15257 0.320162,0.54428 0.576292,0.92848 0.800405,1.15259 0.240122,0.22411 0.544275,0.57629 0.92847,1.04053 0.384193,0.46423 0.736372,0.76838 1.040525,0.92846 0.320162,0.14408 0.640325,0.32017 1.040526,0.56029 0.384194,0.24013 0.880445,0.43222 1.488752,0.5763 0,-0.16009 0.160082,-0.30416 0.464236,-0.44824 0.160078,-0.92846 0.384188,-2.96149 0.688342,-6.11509 0.320168,-3.13759 0.576293,-5.41073 0.800415,-6.80344 0.240111,-1.3767 0.592294,-3.13758 1.056527,-5.28266 a 42.10128,42.10128 0 0 1 1.600817,-5.76292 25.885084,25.885084 0 0 1 3.681856,-6.24315 l 3.457746,-4.59432 c 0.480246,0.32015 0.848432,0.76839 1.152586,1.37669 0.320156,0.62431 0.544278,1.3927 0.704356,2.30516 0.160078,0.92847 0.304154,1.61682 0.464232,2.08106 3.201622,7.82795 5.362706,12.90252 6.435247,15.20769 5.53881,11.20566 11.061593,20.97059 16.600391,29.26279 a 118.65197,118.65197 0 0 0 7.84397,9.44477 c 0.28814,0.16008 0.86443,0.57628 1.71287,1.26464 a 6.4032366,6.4032366 0 0 1 1.72887,1.96899 h 0.24012 v 0.44823 c -1.69686,-0.76839 -3.80992,-2.44924 -6.3392,-5.05855 -2.52929,-2.60933 -4.03404,-4.06606 -4.48226,-4.38623 -8.612359,-7.05957 -15.06362,-14.27921 -19.369798,-21.65894 a 475.12015,475.12015 0 0 1 -5.987028,-13.12664 v -0.24012 c -0.320156,0.32016 -0.512262,0.68835 -0.576294,1.15258 a 34.289332,34.289332 0 0 0 -0.352171,3.23364 40.660552,40.660552 0 0 0 -1.264647,7.49179 32.816587,32.816587 0 0 1 -1.728867,8.29218 7.7959405,7.7959405 0 0 1 -4.146101,4.25815 c -5.378716,2.30518 -10.597353,-0.83242 -15.671918,-9.44476 -3.841943,-6.75541 -6.179124,-15.12765 -7.027553,-25.13271 a 78.391624,78.391624 0 0 1 2.657343,-28.55843 c 0,-0.30416 0.33617,-2.08106 1.040527,-5.29868 0.688347,-3.21763 1.488752,-5.44275 2.401213,-6.67538 a 5.1225893,5.1225893 0 0 0 -0.912461,-2.08105 18.249224,18.249224 0 0 0 -1.600809,-1.84093 10.677397,10.677397 0 0 1 -1.392704,-1.616816 62.975831,62.975831 0 0 1 -5.298679,-9.684895 C 45.788745,87.146558 43.179425,79.942918 38.873249,67.32854 38.569095,66.57616 38.184901,65.247489 37.720667,63.422567 A 144.68112,144.68112 0 0 0 36.568084,59.03635 C 35.799695,57.3555 33.270417,53.353477 28.96424,47.062297 28.660087,46.453989 27.939722,45.413464 26.787139,43.940719 A 46.775643,46.775643 0 0 1 21.488461,36.000706 19.834026,19.834026 0 0 1 19.519466,31.27832 c -0.320162,-1.312665 -0.608307,-2.961498 -0.91246,-4.96251 -0.320163,-1.985003 0,-3.68186 0.91246,-5.058556 1.232623,-3.233635 3.073553,-5.490775 5.5388,-6.803439 a 12.742441,12.742441 0 0 1 7.603843,-1.504761 c 2.60932,0.320163 5.522792,1.08855 8.756426,2.305166 3.217627,1.232622 5.95501,2.465246 8.164127,3.68186 a 68.35455,68.35455 0 0 1 6.579326,4.162105 c 0.464235,0.320162 1.50476,1.184598 3.10557,2.641335 a 14.727444,14.727444 0 0 0 3.585811,2.657343 l 11.285704,0.688347 c 9.52482,2.465247 15.81599,4.690371 18.889549,6.675375 13.206678,8.164126 24.236258,16.792487 33.072718,25.933107 8.83647,9.124613 17.08063,20.394309 24.76452,33.761065 0.92846,1.68085 1.76088,3.52178 2.54528,5.522793 a 441.82332,441.82332 0 0 1 2.52928,6.80344 c 0.92847,2.52928 1.68085,4.48226 2.30516,5.87497 a 409.71109,409.71109 0 0 0 12.21418,27.64597 c 0.46424,0.92847 1.07254,2.30516 1.84093,4.1621 0.76839,1.82493 1.45674,3.40973 2.08105,4.70638 0.60831,1.31267 1.3767,2.49727 2.28916,3.56981 0.32016,0.62431 1.31267,1.23262 3.00952,1.84093 1.68085,0.62431 2.60932,1.00851 2.75339,1.16859 0.92847,0.44823 3.26565,1.56879 7.04357,3.32968 3.7619,1.7609 6.5633,3.3457 8.40424,4.72239 a 217.54996,217.54996 0 0 1 24.42835,19.5939 c 1.07254,0.91246 2.40121,2.52928 4.03404,4.83445 1.60081,2.30516 2.80141,3.84194 3.5698,4.61032 v 1.3767 c -0.76839,0.32017 -3.1536,1.07255 -7.15562,2.30517 -1.84093,0.46423 -4.37021,0.88045 -7.60383,1.28065 -3.21764,0.36818 -5.68288,0.8004 -7.36373,1.24863 -5.23464,1.53678 -8.61235,2.40121 -10.13313,2.54529 l 0.22412,0.46423 a 12.614376,12.614376 0 0 0 3.92198,5.05855 62.415549,62.415549 0 0 0 7.47578,5.29869 73.028912,73.028912 0 0 1 5.65085,3.68185 77.383114,77.383114 0 0 1 15.67193,16.13616 l 4.37021,4.61033 c 0.32016,0.48025 0.70436,1.31267 1.15259,2.52928 0.48023,1.23262 0.84842,2.08106 1.15257,2.54529 v 0.46423 a 9.1406202,9.1406202 0 0 1 -2.75339,-2.08105 12.710425,12.710425 0 0 0 -2.08105,-1.84093 c -5.84295,-4.75441 -9.06058,-7.36372 -9.6849,-7.84397 a 116.85907,116.85907 0 0 0 -9.09259,-4.81843 84.586755,84.586755 0 0 1 -8.86848,-4.85045 141.23939,141.23939 0 0 1 -9.44478,-7.36373 c -2.7694,-2.16109 -5.39473,-5.44275 -7.84397,-9.92502 -0.32015,-0.28814 -0.68834,-1.05652 -1.15257,-2.28916 a 11.397761,11.397761 0 0 0 -1.3767,-2.76939 c 0.16008,-0.91246 0.52827,-1.6008 1.15258,-2.08105 0.60831,-0.44823 1.52077,-0.83242 2.75339,-1.13657 1.23263,-0.32017 2.00102,-0.54428 2.30517,-0.70436 7.20363,-3.21763 16.8085,-4.67436 28.81456,-4.37021 z M 62.837361,54.650132 c 0.320162,0.320162 0.960486,0.84843 1.952988,1.60081 1.00851,0.784397 1.728874,1.472744 2.193108,2.081052 0.160081,0.320161 0.384194,0.848428 0.688349,1.600808 0.320161,0.800405 0.624315,1.328672 0.928469,1.632826 0,3.681861 -1.008511,6.29118 -2.993514,7.843965 0,0.144072 -0.08005,0.304154 -0.24012,0.448227 -0.76839,-1.536777 -1.920972,-4.066055 -3.44174,-7.603843 -0.320162,-0.464235 -1.040527,-1.424721 -2.19311,-2.881458 A 22.139191,22.139191 0 0 1 57.31457,55.802715 h -0.464234 v -0.464234 c 2.145084,-0.464235 4.146095,-0.688349 5.987025,-0.688349 z" />
</svg>
