<svg xmlns="http://www.w3.org/2000/svg" viewBox="0 0 256 256">
  <path d="M185.54 167.47c-.1-.58-.5-1.23-1.22-1.95a19.17 19.17 0 0 0-3.1-2.37c-1.34-.86-2.01-1.34-2.01-1.44-4.9-3.64-8.02-5.9-9.36-6.77-.67-.38-1.85-.9-3.52-1.58a73.56 73.56 0 0 1-2.81-1.15c-.48-.19-1.51-.55-3.1-1.08a40.24 40.24 0 0 1-4.1-1.58 5.43 5.43 0 0 1-2.3-1.66c-1.73-2.5-3.94-6.95-6.62-13.39-.58-1.53-1.61-3.93-3.1-7.2-1.49-3.25-2.57-5.7-3.24-7.33-.29-.67-.67-1.78-1.15-3.31a20.19 20.19 0 0 0-1.44-3.6c-7-14.4-16.65-25.77-28.93-34.12-4.7-3.16-9.17-5.42-13.39-6.76-.96-.39-2.5-.62-4.6-.72a35 35 0 0 1-4.61-.43h-1.87c-.67-.3-1.54-.91-2.6-1.88a18.13 18.13 0 0 0-1.86-1.58 45.76 45.76 0 0 0-9.07-5.04c-3.08-1.34-5.04-1.63-5.9-.86-.68.2-1.1.62-1.3 1.3-.48.86-.34 2.25.43 4.17.39.96.87 1.85 1.44 2.66l1.94 2.74a43.52 43.52 0 0 0 1.66 2.23c2.5 3.74 4.08 6.33 4.75 7.77.77 1.92 1.73 4.85 2.88 8.78 1.15 3.94 2.06 6.77 2.73 8.5a45.58 45.58 0 0 0 3.46 6.47l1.58 1.73a7.03 7.03 0 0 1 1.73 2.73c.38.3.48 1.06.29 2.3a25.6 25.6 0 0 1-.65 3.1c-.24.82-.6 1.85-1.08 3.1a72.73 72.73 0 0 0-.86 2.3 44.33 44.33 0 0 0-1.44 13.67c.19 5 .96 9.31 2.3 12.96.1.1.22.36.36.79l.29.86a11.23 11.23 0 0 0 .79 1.73c.1.14.24.39.43.72.2.34.36.58.5.72.15.14.34.36.58.65.24.29.46.48.65.58.2.09.4.2.65.35.24.15.55.27.93.36 0-.1.1-.19.29-.28.1-.58.24-1.85.43-3.82.2-1.96.36-3.38.5-4.25.15-.86.37-1.96.66-3.3a26.3 26.3 0 0 1 1-3.6 16.17 16.17 0 0 1 2.3-3.9l2.16-2.87c.3.2.53.48.72.86.2.39.34.87.44 1.44.1.58.19 1.01.29 1.3 2 4.89 3.35 8.06 4.02 9.5 3.46 7 6.91 13.1 10.37 18.28a74.12 74.12 0 0 0 4.9 5.9c.18.1.54.36 1.07.79a4 4 0 0 1 1.08 1.23h.15v.28c-1.06-.48-2.38-1.53-3.96-3.16s-2.52-2.54-2.8-2.74c-5.38-4.41-9.41-8.92-12.1-13.53a296.8 296.8 0 0 1-3.74-8.2v-.15c-.2.2-.32.43-.36.72a21.42 21.42 0 0 0-.22 2.02 25.4 25.4 0 0 0-.79 4.68 20.5 20.5 0 0 1-1.08 5.18 4.87 4.87 0 0 1-2.59 2.66c-3.36 1.44-6.62-.52-9.79-5.9-2.4-4.22-3.86-9.45-4.39-15.7a48.97 48.97 0 0 1 1.66-17.84c0-.19.21-1.3.65-3.31.43-2.01.93-3.4 1.5-4.17a3.2 3.2 0 0 0-.57-1.3 11.4 11.4 0 0 0-1-1.15 6.67 6.67 0 0 1-.87-1.01 39.34 39.34 0 0 1-3.31-6.05c-.58-1.15-2.21-5.65-4.9-13.53-.19-.47-.43-1.3-.72-2.44a90.38 90.38 0 0 0-.72-2.74c-.48-1.05-2.06-3.55-4.75-7.48-.19-.38-.64-1.03-1.36-1.95a29.22 29.22 0 0 1-3.31-4.96 12.39 12.39 0 0 1-1.23-2.95c-.2-.82-.38-1.85-.57-3.1-.2-1.24 0-2.3.57-3.16.77-2.02 1.92-3.43 3.46-4.25a7.96 7.96 0 0 1 4.75-.94c1.63.2 3.45.68 5.47 1.44 2.01.77 3.72 1.54 5.1 2.3a42.7 42.7 0 0 1 4.11 2.6c.29.2.94.74 1.94 1.65a9.2 9.2 0 0 0 2.24 1.66l7.05.43c5.95 1.54 9.88 2.93 11.8 4.17 8.25 5.1 15.14 10.49 20.66 16.2 5.52 5.7 10.67 12.74 15.47 21.09.58 1.05 1.1 2.2 1.59 3.45a276 276 0 0 1 1.58 4.25c.58 1.58 1.05 2.8 1.44 3.67a255.94 255.94 0 0 0 7.63 17.27c.29.58.67 1.44 1.15 2.6.48 1.14.91 2.13 1.3 2.94.38.82.86 1.56 1.43 2.23.2.39.82.77 1.88 1.15 1.05.39 1.63.63 1.72.73.58.28 2.04.98 4.4 2.08 2.35 1.1 4.1 2.09 5.25 2.95a135.9 135.9 0 0 1 15.26 12.24c.67.57 1.5 1.58 2.52 3.02 1 1.44 1.75 2.4 2.23 2.88v.86c-.48.2-1.97.67-4.47 1.44-1.15.29-2.73.55-4.75.8-2.01.23-3.55.5-4.6.78-3.27.96-5.38 1.5-6.33 1.59l.14.29a7.88 7.88 0 0 0 2.45 3.16 38.99 38.99 0 0 0 4.67 3.31 45.62 45.62 0 0 1 3.53 2.3 48.34 48.34 0 0 1 9.79 10.08l2.73 2.88c.2.3.44.82.72 1.58.3.77.53 1.3.72 1.59v.29a5.71 5.71 0 0 1-1.72-1.3 7.94 7.94 0 0 0-1.3-1.15c-3.65-2.97-5.66-4.6-6.05-4.9a73 73 0 0 0-5.68-3.01 52.84 52.84 0 0 1-5.54-3.03 88.23 88.23 0 0 1-5.9-4.6c-1.73-1.35-3.37-3.4-4.9-6.2-.2-.18-.43-.66-.72-1.43a7.12 7.12 0 0 0-.86-1.73c.1-.57.33-1 .72-1.3.38-.28.95-.52 1.72-.71.77-.2 1.25-.34 1.44-.44 4.5-2.01 10.5-2.92 18-2.73zM87.37 82.1c.2.2.6.53 1.22 1 .63.49 1.08.92 1.37 1.3.1.2.24.53.43 1 .2.5.39.83.58 1.02 0 2.3-.63 3.93-1.87 4.9 0 .09-.05.19-.15.28-.48-.96-1.2-2.54-2.15-4.75-.2-.29-.65-.89-1.37-1.8a13.83 13.83 0 0 1-1.51-2.23h-.29v-.29c1.34-.29 2.59-.43 3.74-.43z"/>
</svg>