<svg xmlns="http://www.w3.org/2000/svg" viewBox="0 0 256 256">
  <path d="m121.66 207.5-19.77-11.75c-2.12-1.11-2.3-1.98-.56-2.6 2.98-1 5.96-2.37 8.95-4.11.5-.25 1-.19 1.5.19l15.29 8.95a1.7 1.7 0 0 0 1.86 0l59.32-34.32c.62-.25.93-.75.93-1.5V93.73c0-.74-.31-1.3-.93-1.68l-59.32-34.32a1.7 1.7 0 0 0-1.86 0l-59.5 34.33c-.63.37-.94.93-.94 1.68v68.64c0 .74.31 1.24.93 1.49l16.42 9.51c4.35 1.87 7.8 2.06 10.35.56a7.14 7.14 0 0 0 3.83-6.53V99.5c0-1.11.56-1.67 1.67-1.67h7.65c1.12 0 1.68.56 1.68 1.67v67.9c0 5.85-1.56 10.39-4.66 13.62-3.11 3.23-7.46 4.85-13.06 4.85-3.98 0-8.52-1.24-13.62-3.73l-15.66-8.96c-4.1-2.36-6.16-5.96-6.16-10.81V93.72c0-4.85 2.05-8.45 6.16-10.81l59.5-34.33c4.22-2.36 8.4-2.36 12.5 0l59.5 34.33c4.22 2.36 6.34 5.96 6.34 10.81v68.65c0 4.85-2.12 8.46-6.34 10.81l-59.32 34.33a12.76 12.76 0 0 1-12.68 0zm8.77-47.47c-4.36-1.3-7.6-3.1-9.7-5.4a22.83 22.83 0 0 1-4.57-7 20.65 20.65 0 0 1-1.4-7.65c0-1.12.62-1.68 1.86-1.68h7.65c1 0 1.55.44 1.68 1.31.62 4.23 2.3 7.27 5.03 9.14 2.74 1.86 7.84 2.8 15.3 2.8 6.21 0 10.75-.77 13.61-2.33a7.66 7.66 0 0 0 4.3-7.18c0-1.5-.38-2.71-1.12-3.64-.75-.94-2.7-1.84-5.88-2.7-3.17-.88-7.87-1.62-14.08-2.25-8.96-.86-15.58-2.6-19.87-5.22-4.29-2.61-6.43-6.96-6.43-13.06 0-5.96 2.4-10.66 7.18-14.08 4.79-3.42 11.4-5.13 19.86-5.13 9.58 0 16.8 1.71 21.64 5.13 4.85 3.42 7.52 8.68 8.02 15.76.13.5 0 .94-.37 1.3a1.8 1.8 0 0 1-1.3.57h-7.65c-1 0-1.56-.43-1.68-1.3-1-4.11-2.83-6.97-5.5-8.59-2.68-1.61-7.06-2.42-13.15-2.42-10.2 0-15.3 2.8-15.3 8.4 0 1.61.44 2.79 1.3 3.53.88.75 2.71 1.47 5.5 2.15 2.8.69 7.31 1.46 13.53 2.33 9.83 1.37 16.79 3.3 20.9 5.79s6.15 6.77 6.15 12.86c0 6.47-2.58 11.5-7.74 15.11-5.16 3.61-12.47 5.41-21.92 5.41-6.22 0-11.5-.65-15.85-1.96z"/>
</svg>