<?xml version="1.0" encoding="UTF-8" standalone="no"?>
<svg
   viewBox="0 0 256 256">
  <path
     d="m 118.68474,243.52285 -28.696952,-17.0556 c -3.077269,-1.61121 -3.338549,-2.87405 -0.81287,-3.774 4.325594,-1.45154 8.651188,-3.44015 12.991282,-5.96584 0.72578,-0.36288 1.45155,-0.27578 2.17732,0.2758 l 22.19405,12.99128 a 2.4676188,2.4676188 0 0 0 2.69987,0 l 86.10538,-49.81686 c 0.89995,-0.36289 1.34993,-1.08866 1.34993,-2.17731 V 78.381095 c 0,-1.074139 -0.44998,-1.887002 -1.34993,-2.438588 L 129.23744,26.125639 a 2.4676188,2.4676188 0 0 0 -2.69987,0 L 40.170915,75.957023 c -0.91447,0.53707 -1.364448,1.349933 -1.364448,2.438587 v 99.63374 c 0,1.07414 0.449978,1.7999 1.349932,2.16279 l 23.834295,13.80416 c 6.314201,2.71438 11.322015,2.99016 15.023445,0.81286 a 10.363999,10.363999 0 0 0 5.559402,-9.47857 V 86.756484 c 0,-1.611211 0.812858,-2.424073 2.424071,-2.424073 h 11.104277 c 1.625728,0 2.438601,0.812862 2.438601,2.424073 v 98.559596 c 0,8.49152 -2.264414,15.08151 -6.764183,19.76998 -4.514295,4.68848 -10.828494,7.03997 -18.957121,7.03997 -5.777131,0 -12.367125,-1.79991 -19.769982,-5.41424 l -22.731123,-13.0058 c -5.951316,-3.42565 -8.941489,-8.65119 -8.941489,-15.69115 V 78.36658 c 0,-7.039971 2.975657,-12.265517 8.941489,-15.691153 L 118.68474,12.844043 c 6.1255,-3.4256352 12.19294,-3.4256352 18.14425,0 l 86.36666,49.831384 c 6.1255,3.425636 9.20277,8.651182 9.20277,15.691153 v 99.64826 c 0,7.03996 -3.07727,12.28002 -9.20277,15.69115 l -86.10538,49.83138 a 18.521656,18.521656 0 0 1 -18.40553,0 z m 12.73001,-68.90463 c -6.32872,-1.88699 -11.0317,-4.49976 -14.07994,-7.83831 a 33.138668,33.138668 0 0 1 -6.63354,-10.16078 29.97431,29.97431 0 0 1 -2.03217,-11.10429 c 0,-1.62572 0.89997,-2.43859 2.69987,-2.43859 h 11.10429 c 1.45154,0 2.24988,0.63868 2.43858,1.90152 0.89997,6.14002 3.33855,10.5527 7.30126,13.26708 3.97722,2.69987 11.38007,4.06432 22.20857,4.06432 9.01406,0 15.60405,-1.1177 19.75546,-3.3821 a 11.1188,11.1188 0 0 0 6.24162,-10.42206 c 0,-2.1773 -0.55158,-3.93367 -1.62573,-5.2836 -1.08865,-1.36445 -3.91915,-2.67084 -8.53505,-3.91916 -4.60139,-1.27736 -11.42362,-2.3515 -20.43769,-3.26596 -13.0058,-1.24834 -22.615,-3.77402 -28.84211,-7.57705 -6.2271,-3.78852 -9.33341,-10.10272 -9.33341,-18.95712 0,-8.65118 3.48371,-15.473419 10.42206,-20.437686 6.95289,-4.96427 16.54757,-7.446403 28.82761,-7.446403 13.90575,0 24.38587,2.482133 31.41133,7.446403 7.03996,4.964267 10.91559,12.599366 11.64135,22.876276 0.1887,0.72577 0,1.36445 -0.53707,1.887 a 2.6127728,2.6127728 0 0 1 -1.887,0.82738 h -11.10429 c -1.45154,0 -2.2644,-0.62416 -2.43858,-1.887 -1.45155,-5.96583 -4.10786,-10.11724 -7.98348,-12.46873 -3.89012,-2.336984 -10.24787,-3.512732 -19.08775,-3.512732 -14.80571,0 -22.20858,4.064312 -22.20858,12.192942 0,2.33698 0.63869,4.0498 1.88701,5.12394 1.27736,1.08865 3.93368,2.13376 7.98347,3.12081 4.06432,1.00156 10.61077,2.11925 19.63935,3.38208 14.26864,1.98862 24.37136,4.7901 30.33719,8.40443 5.96584,3.61433 8.92697,9.82692 8.92697,18.66681 0,9.39147 -3.74497,16.69271 -11.23492,21.93277 -7.48995,5.24006 -18.10071,7.85284 -31.81776,7.85284 -9.02858,0 -16.69273,-0.9435 -23.00692,-2.84503 z"/>
</svg>
