<svg xmlns="http://www.w3.org/2000/svg" viewBox="0 0 128 128">
  <path d="M64 33.04C30.26 33.04 2.9 46.9 2.9 64S30.27 94.96 64 94.96 125.1 81.1 125.1 64 97.73 33.04 64 33.04zm-15.9 37c-1.45 1.36-3.07 1.92-4.86 2.5-1.78.58-4.05.46-6.8.46h-6.26l-1.73 10h-7.3l6.51-34H41.7c4.22 0 7.3 1.22 9.24 3.43 1.94 2.22 2.52 5.37 1.75 9.34a15.18 15.18 0 0 1-1.61 4.51 15.12 15.12 0 0 1-2.98 3.75zM69.41 73l2.89-14.42c.32-1.69.2-2.94-.37-3.55-.57-.62-1.78-1.03-3.63-1.03h-5.8l-3.72 19h-7.25l6.52-33h7.24l-1.73 9h6.45c4.06 0 6.86.82 8.4 2.23s2 3.36 1.4 6.53L76.76 73H69.4zm40.26-11.18a15 15 0 0 1-1.61 4.49 14.95 14.95 0 0 1-2.97 3.72c-1.46 1.37-3.08 1.93-4.86 2.5-1.78.59-4.05.47-6.81.47h-6.26l-1.73 10h-7.3l6.52-34h14.04c4.22 0 7.3 1.22 9.24 3.43 1.93 2.22 2.51 5.42 1.74 9.4zM95.92 54h-5l-2.73 14h4.44c2.94 0 5.14-.29 6.58-1.4 1.44-1.1 2.41-2.83 2.92-5.42.48-2.5.26-4.44-.66-5.46-.93-1.02-2.78-1.72-5.55-1.72zm-56.99 0h-5L31.2 68h4.45c2.94 0 5.13-.29 6.57-1.4 1.44-1.1 2.42-2.83 2.92-5.42.48-2.5.26-4.44-.66-5.46S41.71 54 38.93 54z"/>
</svg>