<?xml version="1.0" encoding="UTF-8" standalone="no"?>
<svg viewBox="0 0 256 256" fill="none" xmlns="http://www.w3.org/2000/svg">
  <defs
     id="defs5" />
  <g
     id="g5"
     transform="matrix(1.3069777,0,0,1.3069777,-39.039463,-39.520227)">
    <path
       d="m 110.809,128 c 0,-9.494 7.697,-17.191 17.191,-17.191 9.494,0 17.191,7.697 17.191,17.191 0,9.494 -7.697,17.191 -17.191,17.191 -9.494,0 -17.191,-7.697 -17.191,-17.191 z"
       fill-rule="nonzero"
       opacity="1"
       stroke="none"
       id="path1" />
    <g
       opacity="1"
       id="g4">
      <path
         d="m 42.0443,128 c 0,-21.362 38.4837,-38.68 85.9557,-38.68 47.472,0 85.956,17.318 85.956,38.68 0,21.362 -38.484,38.68 -85.956,38.68 -47.472,0 -85.9557,-17.318 -85.9557,-38.68 z"
         fill="none"
         opacity="1"
         stroke-linecap="butt"
         stroke-linejoin="miter"
         stroke-width="8"
         id="path2" />
      <path
         d="M 85.0222,53.5602 C 103.523,42.879 137.762,67.548 161.498,108.66 c 23.736,41.112 27.98,83.099 9.48,93.78 -18.501,10.681 -52.74,-13.988 -76.4759,-55.1 C 70.7661,106.228 66.5218,64.2414 85.0222,53.5602 Z"
         fill="none"
         opacity="1"
         stroke-linecap="butt"
         stroke-linejoin="miter"
         stroke-width="8"
         id="path3" />
      <path
         d="m 170.978,53.5602 c 18.5,10.6812 14.256,52.6678 -9.48,93.7798 -23.736,41.112 -57.975,65.781 -76.4758,55.1 C 66.5218,191.759 70.7661,149.772 94.5021,108.66 118.238,67.548 152.477,42.879 170.978,53.5602 Z"
         fill="none"
         opacity="1"
         stroke-linecap="butt"
         stroke-linejoin="miter"
         stroke-width="8"
         id="path4" />
    </g>
  </g>
</svg>
