<svg viewBox="0 0 256 256" fill="none" xmlns="http://www.w3.org/2000/svg">
<g>
<path d="M110.809 128C110.809 118.506 118.506 110.809 128 110.809C137.494 110.809 145.191 118.506 145.191 128C145.191 137.494 137.494 145.191 128 145.191C118.506 145.191 110.809 137.494 110.809 128Z"  fill-rule="nonzero" opacity="1" stroke="none"/>
<g opacity="1">
<path d="M42.0443 128C42.0443 106.638 80.528 89.32 128 89.32C175.472 89.32 213.956 106.638 213.956 128C213.956 149.362 175.472 166.68 128 166.68C80.528 166.68 42.0443 149.362 42.0443 128Z" fill="none" opacity="1"  stroke-linecap="butt" stroke-linejoin="miter" stroke-width="8"/>
<path d="M85.0222 53.5602C103.523 42.879 137.762 67.548 161.498 108.66C185.234 149.772 189.478 191.759 170.978 202.44C152.477 213.121 118.238 188.452 94.5021 147.34C70.7661 106.228 66.5218 64.2414 85.0222 53.5602Z" fill="none" opacity="1"  stroke-linecap="butt" stroke-linejoin="miter" stroke-width="8"/>
<path d="M170.978 53.5602C189.478 64.2414 185.234 106.228 161.498 147.34C137.762 188.452 103.523 213.121 85.0222 202.44C66.5218 191.759 70.7661 149.772 94.5021 108.66C118.238 67.548 152.477 42.879 170.978 53.5602Z" fill="none" opacity="1"  stroke-linecap="butt" stroke-linejoin="miter" stroke-width="8"/>
</g>
</g>
</svg>
</svg>