<svg xmlns="http://www.w3.org/2000/svg" viewBox="0 0 256 256">
  <path fill-rule="evenodd" d="M37.8 112.01a20.43 20.43 0 0 0-5.4-3.24c-1.8-.7-3.54-1.05-5.23-1.05a8.5 8.5 0 0 0-5.23 1.51 4.72 4.72 0 0 0-2.03 3.96c0 1.12.34 2.05 1.02 2.78a8.82 8.82 0 0 0 2.65 1.9c1.1.53 2.34.99 3.72 1.38 1.38.4 2.74.81 4.09 1.26 5.4 1.8 9.35 4.2 11.86 7.2 2.5 3 3.75 6.92 3.75 11.74 0 3.26-.55 6.2-1.65 8.84-1.1 2.64-2.7 4.9-4.8 6.78a22.2 22.2 0 0 1-7.77 4.37A32.4 32.4 0 0 1 22.36 161c-8.04 0-15.5-2.38-22.36-7.15l7.09-13.3a28.76 28.76 0 0 0 7.34 4.88 17.68 17.68 0 0 0 7.17 1.6c2.7 0 4.71-.62 6.03-1.85a5.63 5.63 0 0 0 1.99-4.21c0-.96-.17-1.78-.5-2.49-.35-.7-.9-1.34-1.7-1.93a13.54 13.54 0 0 0-3.08-1.64c-1.26-.5-2.8-1.07-4.6-1.69a92.48 92.48 0 0 1-6.28-2.23 19.8 19.8 0 0 1-5.49-3.24 15.06 15.06 0 0 1-3.88-5.09c-.98-2.05-1.47-4.64-1.47-7.79 0-3.14.52-5.99 1.56-8.54a18.98 18.98 0 0 1 4.38-6.56 19.57 19.57 0 0 1 6.92-4.25A26.21 26.21 0 0 1 24.64 94c3.15 0 6.44.43 9.87 1.3a43.6 43.6 0 0 1 9.87 3.83l-6.58 12.88Zm35.75 8.69h23.9V96H114v64H97.45v-26.4h-23.9V160H57V96h16.55zM163 110.09h-19.55v10.7h18.46v14.09h-18.46v11.03H163V160h-36V96h36zM191.37 96v49.91H211V160h-36V96zm45 0v49.91H256V160h-36V96z"/>
</svg>