<svg xmlns="http://www.w3.org/2000/svg">
  <symbol id="icon" viewBox="0 0 256 256">
	  <g fill-rule="evenodd" transform="translate(0 94)">
    <path d="M37.8025135,18.0125628 C36.0023849,16.5535941 34.2022831,15.4734122 32.4021545,14.7719849 C30.6020258,14.0705577 28.8581773,13.7198493 27.1705566,13.7198493 C25.0329038,13.7198493 23.2890553,14.2248693 21.9389587,15.2349246 C20.5888622,16.2449799 19.9138241,17.5636435 19.9138241,19.1909548 C19.9138241,20.3132384 20.2513431,21.2391086 20.9263914,21.968593 C21.6014397,22.6980774 22.4874272,23.3293524 23.5843806,23.8624372 C24.681334,24.395522 25.918904,24.8584571 27.2971275,25.2512563 C28.675351,25.6440556 30.0394906,26.0649057 31.3895872,26.5138191 C36.7899731,28.3094731 40.741759,30.7083183 43.2450629,33.7104271 C45.7483669,36.7125359 47,40.6264415 47,45.4522614 C47,48.7068839 46.4515315,51.6528344 45.3545781,54.290201 C44.2576247,56.9275676 42.6544091,59.1861296 40.5448834,61.0659548 C38.4353576,62.9457799 35.8477114,64.4047269 32.7818671,65.4428392 C29.716023,66.4809517 26.2423893,67 22.3608619,67 C14.3165367,67 6.86299063,64.6151831 0,59.8454775 L7.08797129,46.5464825 C9.56314824,48.7349357 12.0101615,50.3622225 14.4290844,51.4283921 C16.8480073,52.4945614 19.2387674,53.0276382 21.6014363,53.0276382 C24.3016293,53.0276382 26.3126805,52.4103915 27.6346499,51.1758794 C28.9566194,49.9413674 29.6175943,48.5385339 29.6175943,46.9673367 C29.6175943,46.0133955 29.4488348,45.1857238 29.1113106,44.4842966 C28.7737865,43.7828693 28.2112548,43.1375658 27.4236984,42.5483669 C26.6361421,41.959168 25.6095217,41.4120628 24.3438062,40.9070353 C23.0780907,40.4020076 21.5451916,39.8408741 19.7450628,39.2236181 C17.6074101,38.550248 15.5119792,37.8067462 13.4587074,36.9930906 C11.4054356,36.1794348 9.57720731,35.099253 7.9739677,33.7525126 C6.37072809,32.4057722 5.07690499,30.7083435 4.09245962,28.660176 C3.10801423,26.6120083 2.61579893,24.0167661 2.61579893,20.8743719 C2.61579893,17.7319776 3.13614082,14.8842255 4.17684023,12.3310302 C5.21753962,9.77783481 6.68012225,7.58941448 8.56463198,5.76570353 C10.4491417,3.94199257 12.755522,2.52513068 15.483842,1.51507538 C18.2121622,0.505020076 21.263897,0 24.6391383,0 C27.7893635,0 31.0801745,0.434878399 34.5116697,1.30464824 C37.943165,2.17441809 41.233976,3.45099661 44.3842011,5.13442212 L37.8025135,18.0125628 Z"/>
    <polygon points="73.551 26.7 97.449 26.7 97.449 2 114 2 114 66 97.449 66 97.449 39.602 73.551 39.602 73.551 66 57 66 57 2 73.551 2"/>
    <polygon points="163 16.09 143.448 16.09 143.448 26.785 161.909 26.785 161.909 40.875 143.448 40.875 143.448 51.91 163 51.91 163 66 127 66 127 2 163 2"/>
    <polygon points="191.371 2 191.371 51.91 211 51.91 211 66 175 66 175 2"/>
    <polygon points="236.371 2 236.371 51.91 256 51.91 256 66 220 66 220 2"/>  
		</g>
	</symbol>
</svg>