<?xml version="1.0" encoding="iso-8859-1"?>
<!-- Uploaded to: SVG Repo, www.svgrepo.com, Generator: SVG Repo Mixer Tools -->
<svg version="1.1" id="Layer_1" xmlns="http://www.w3.org/2000/svg" xmlns:xlink="http://www.w3.org/1999/xlink" 
	 viewBox="0 0 512 512" xml:space="preserve">
<path style="fill:#FE9900;" d="M281.82,203.519c-7.956,3.207-16.674,4.982-25.82,4.982s-17.864-1.775-25.82-4.982l-15.346,196.239
	c7.941-15.212,23.397-25.533,41.165-25.533c17.767,0,33.223,10.321,41.163,25.533h0.002L281.82,203.519z"/>
<path style="fill:#FCB659;" d="M256,395.374c-4.621,0-8.366-3.745-8.366-8.366v-189.63c0-4.621,3.745-8.366,8.366-8.366
	c4.621,0,8.366,3.745,8.366,8.366v189.63C264.366,391.63,260.621,395.374,256,395.374z"/>
<path style="fill:#FF6700;" d="M302.797,419.766c0.032-0.693,0.05-1.389,0.05-2.09c0-25.872-20.976-46.847-46.847-46.847
	c-25.873,0-46.847,20.975-46.847,46.847c0,0.702,0.018,1.398,0.048,2.09H302.797z"/>
<path style="fill:#FF4E00;" d="M265.185,371.734c-2.972-0.591-6.041-0.907-9.185-0.907c-25.873,0-46.847,20.975-46.847,46.847
	c0,0.702,0.018,1.398,0.048,2.09h18.37c-0.03-0.693-0.048-1.389-0.048-2.09C227.522,394.947,243.71,376.003,265.185,371.734z"/>
<path style="fill:#FF6700;" d="M190.118,145.696v17.531c6.991,27.957,33.822,48.785,65.882,48.785
	c32.059,0,58.891-20.829,65.881-48.785v-17.531H190.118z"/>
<path style="fill:#FF4E00;" d="M207.965,163.226v-17.531h-17.846v17.531c6.991,27.957,33.822,48.785,65.882,48.785
	c3.025,0,6.003-0.186,8.924-0.545C236.901,208.016,214.296,188.544,207.965,163.226z"/>
<path style="fill:#8C552C;" d="M347.185,496.571v-61.523c0-9.055-5.993-16.397-13.386-16.397H178.201
	c-7.392,0-13.386,7.342-13.386,16.397v61.523"/>
<path style="fill:#6B3C1A;" d="M225.048,418.651h-46.847c-7.392,0-13.386,7.342-13.386,16.397v61.523h46.847v-61.523
	C211.662,425.993,217.656,418.651,225.048,418.651z"/>
<path style="fill:#7C4B21;" d="M358.843,483.373h-8.754h-26.442h-0.061h-27.428h-11.871h-4.401h-12.51h-13.155h-9.593h-12.51h-4.401
	h-13.155h-21.745h-4.401h-25.665h-9.593c-7.906,0-14.314,6.408-14.314,14.314c0,7.905,6.407,14.314,14.314,14.314h9.593h25.665
	h4.401h21.745h13.155h4.401h12.51h9.593h13.155h12.51h4.401h26.145h8.754h4.401h26.504h8.754c7.904,0,14.311-6.408,14.311-14.314
	C373.155,489.781,366.747,483.373,358.843,483.373z"/>
<path style="fill:#683C1B;" d="M185.693,497.686c0-7.905,6.407-14.314,14.314-14.314h-7.189h-4.401h-25.665h-9.593
	c-7.906,0-14.314,6.408-14.314,14.314c0,7.905,6.407,14.314,14.314,14.314h9.593h25.665h4.401h7.189
	C192.1,512,185.693,505.592,185.693,497.686z"/>
<path style="fill:#FE9900;" d="M429.7,27.512h-6.434h-6.076h-13.155h-1.593h-6.076h-12.401h-6.434h-6.076h-7.079h-1.236H358.3
	h-1.593h-6.076H338.23h-0.754h-5.68h-13.155h-1.236h-4.841h-1.593h-6.076h-7.079h-5.323h-0.754h-5.68h-13.155h-1.235h-4.841h-1.593
	h-13.151h-5.322h-0.754h-5.68h-13.155h-1.235h-6.434h-12.401h-0.754h-5.322h-0.754h-5.68h-14.39h-6.434H161.37h-0.754h-5.322h-6.434
	h-8.314h-6.076h-6.434h-12.401h-6.076H94.813h-6.076h-6.434h-0.998C94.99,111.658,167.987,175.897,256,175.897
	s161.011-64.239,174.695-148.384H429.7V27.512z"/>
<path style="fill:#EF7A06;" d="M128.153,27.512h-0.116h-12.401h-6.076H94.813h-6.076h-6.434h-0.998
	C94.99,111.658,167.987,175.897,256,175.897c7.941,0,15.758-0.531,23.424-1.545C202.146,164.134,140.604,104.065,128.153,27.512z"/>
<path style="fill:#FF7E00;" d="M456.412,14.314C456.412,6.408,450.004,0,442.1,0H429.7h-6.434h-6.076h-13.155h-1.593h-6.076h-12.401
	h-6.434h-6.076h-7.079h-1.236H358.3h-1.593h-6.076H338.23h-0.754h-5.68h-13.155h-1.236h-4.841h-1.593h-6.076h-7.079h-5.323h-0.754
	h-5.68h-13.155h-1.235h-4.841h-1.593h-13.151h-5.322h-0.754h-5.68h-13.155h-1.235h-6.434h-12.401h-0.754h-5.322h-0.754h-5.68h-14.39
	h-6.434H161.37h-0.754h-5.322h-6.434h-8.314h-6.076h-6.434h-12.401h-6.076H94.813h-6.076h-6.434H69.902
	c-7.906,0-14.314,6.408-14.314,14.314s6.407,14.314,14.314,14.314h12.401h6.434h6.076h14.748h6.076h12.401h6.434h6.076h8.314h6.434
	h5.322h0.754h12.401h6.434h14.39h5.68h0.754h5.322h0.754h12.401h6.434h1.235h13.155h5.68h0.754h5.322h13.155h1.593h4.841h1.235
	h13.155h5.68h0.754h5.323h7.079h6.076h1.593h4.841h1.236h13.155h5.68h0.754h12.401h6.076h1.593h4.841h1.236h7.079h6.076h6.434
	h12.401h6.076h1.593h13.155h6.076h6.434h12.401C450.004,28.627,456.412,22.219,456.412,14.314z"/>
<path style="fill:#FF6700;" d="M102.436,14.314C102.436,6.408,108.843,0,116.749,0h-1.113h-6.076H94.813h-6.076h-6.434H69.902
	c-7.906,0-14.314,6.408-14.314,14.314s6.407,14.314,14.314,14.314h12.401h6.434h6.076h14.748h6.076h1.113
	C108.843,28.627,102.436,22.219,102.436,14.314z"/>
</svg>