<svg xmlns="http://www.w3.org/2000/svg">
  <symbol id="icon" viewBox="0 0 256 256">
	<path d="M190.474,185.078c0,0-6.618-11.029-17.647-11.029c-10.662,0-16.912,11.029-38.42,11.029
	C86.611,185.078,64,145.188,64,145.188c43.036,28.359,72.429,8.273,72.429,8.273c-19.414-11.277-60.664-65.076-60.664-65.076
	c35.955,30.582,51.472,38.604,51.472,38.604c-9.29-7.648-35.295-45.037-35.295-45.037c20.808,21.053,62.134,50.369,62.134,50.369
	c11.788-32.404-11.213-61.398-11.213-61.398c56.251,38.236,38.053,80.332,38.053,80.332S196.908,169.27,190.474,185.078z"/>
  </symbol>
</svg>
