<svg id="CHAIR" xmlns="http://www.w3.org/2000/svg" viewBox="0 0 1600 1400">
   <defs>
      <style>.cls-1{fill:#fff;}.cls-2{fill:#262424;}.cls-3{fill:#88c0c2;}.cls-4{fill:#de9244;}</style>
   </defs>
   <title>ebooks (digital library)</title>
   <path class="cls-1" d="M889.29,923.91l-40.86,351.21a11,11,0,0,0,10.88,12.22h0A11,11,0,0,0,870,1278.7l77-354.8H889.29Z"/>
   <path class="cls-2" d="M859.31,1290.34a14,14,0,0,1-13.86-15.57l40.86-351.21a3,3,0,0,1,3-2.65H947a3,3,0,0,1,2.93,3.64l-77,354.79A14,14,0,0,1,859.31,1290.34ZM892,926.91l-40.55,348.55a8,8,0,0,0,15.68,2.61l76.2-351.16H892Z"/>
   <path class="cls-1" d="M1040.26,923.91l40.86,351.21a11,11,0,0,1-10.88,12.22h0a11,11,0,0,1-10.71-8.63l-77-354.8h57.72Z"/>
   <path class="cls-2" d="M1070.23,1290.34a14,14,0,0,1-13.64-11l-77-354.79a3,3,0,0,1,2.93-3.64h57.72a3,3,0,0,1,3,2.65l40.86,351.21A14,14,0,0,1,1070.23,1290.34Zm-84-363.43,76.2,351.16a8,8,0,0,0,15.68-2.61l-40.55-348.55H986.26Z"/>
   <polygon class="cls-1" points="1255.77 890.58 1221.04 890.58 1250.37 700.74 1285.1 700.74 1255.77 890.58"/>
   <path class="cls-2" d="M1255.77,893.58H1221a3,3,0,0,1-3-3.46l29.33-189.83a3,3,0,0,1,3-2.54h34.73a3,3,0,0,1,3,3.46L1258.74,891A3,3,0,0,1,1255.77,893.58Zm-31.23-6h28.66l28.41-183.83h-28.66Z"/>
   <path class="cls-3" d="M1270.4,725.69h0A32.66,32.66,0,0,1,1238.13,688L1265,513.85a32.66,32.66,0,0,1,32.27-27.67h0a32.66,32.66,0,0,1,32.27,37.64L1302.68,698A32.66,32.66,0,0,1,1270.4,725.69Z"/>
   <path class="cls-1" d="M1106.5,923.91l-40.86,351.21a11,11,0,0,0,10.88,12.22h0a11,11,0,0,0,10.71-8.63l77-354.8H1106.5Z"/>
   <path class="cls-2" d="M1076.53,1290.34a14,14,0,0,1-13.86-15.57l40.86-351.21a3,3,0,0,1,3-2.65h57.72a3,3,0,0,1,2.93,3.64l-77,354.79A14,14,0,0,1,1076.53,1290.34Zm32.64-363.43-40.55,348.55a8,8,0,0,0,15.68,2.61l76.2-351.16h-51.33Z"/>
   <path class="cls-1" d="M1257.47,923.91l40.86,351.21a11,11,0,0,1-10.88,12.22h0a11,11,0,0,1-10.71-8.63l-77-354.8h57.72Z"/>
   <path class="cls-2" d="M1287.44,1290.34a14,14,0,0,1-13.64-11l-77-354.8a3,3,0,0,1,2.93-3.64h57.72a3,3,0,0,1,3,2.65l40.86,351.21A14,14,0,0,1,1287.44,1290.34Zm-84-363.43,76.2,351.16a8,8,0,0,0,15.68-2.61L1254.8,926.91h-51.33Z"/>
   <rect class="cls-4" x="861.39" y="871.16" width="283.4" height="59.44" rx="29.72" ry="29.72"/>
   <rect class="cls-1" x="1078.56" y="871.16" width="206.86" height="59.44" rx="29.72" ry="29.72"/>
   <path class="cls-2" d="M1255.7,933.6H1108.28a32.72,32.72,0,1,1,0-65.44H1255.7A32.72,32.72,0,1,1,1255.7,933.6Zm-147.42-59.44a26.72,26.72,0,1,0,0,53.44H1255.7a26.72,26.72,0,1,0,0-53.44H1108.28Z"/>
   <path class="cls-3" d="M510.16,1137.4s-79.5-240,78-394.48C588.16,742.92,676.65,943.91,510.16,1137.4Z"/>
   <path class="cls-1" d="M582.16,781.92s-50.53,175.68-67.94,345.75C514.22,1127.67,565.66,946.91,582.16,781.92Z"/>
   <path class="cls-4" d="M505.67,1141s39.75-224-73.9-370.74C431.76,770.27,383.84,957.6,505.67,1141Z"/>
   <path class="cls-1" d="M437.93,806.9s43.46,165.3,64.49,324.93C502.42,1131.83,458.08,961.76,437.93,806.9Z"/>
   <path class="cls-3" d="M510.89,1131c-94-28.67-143.33-188-143.33-188L400,950.9l14.18,3.44,5.84-1.32,29.5-6.68C484.89,1010.34,510.89,1131,510.89,1131Z"/>
   <path class="cls-1" d="M498.21,1121c-1-1.49-63.44-94.11-98.17-170.09l14.18,3.44,5.84-1.32C434.24,980.53,478.23,1067.15,498.21,1121Z"/>
   <path class="cls-3" d="M449.56,946.34s-65.17,58.4-89.83,175.8a8.26,8.26,0,0,1-14.81,3.1c-8.21-11.59-18.09-33.66-20.7-74.23-4.66-72.67,22.67-113.34,38.67-120,0,0,8.81,6.25,26.2,11a143.33,143.33,0,0,0,15.41,3.28A179.21,179.21,0,0,0,449.56,946.34Z"/>
   <path class="cls-1" d="M404.5,945.29c-16.2,22.45-50.67,76.91-55.61,140.05,0,0-10.77-76.32,40.2-143.33A143.33,143.33,0,0,0,404.5,945.29Z"/>
   <path class="cls-4" d="M642.93,987.2C600.68,1115,518.81,1132.46,518.81,1132.46L504,1129.82C541,1068,560,983,560,983l33.33,1.7,13.65,0.7Z"/>
   <path class="cls-1" d="M607,985.38c-20.58,89.19-87.09,138.35-88.17,139.15,46-48.06,67.22-112.74,74.52-139.84Z"/>
   <path class="cls-4" d="M641.88,1158.34S632.9,1062.21,560,983c0,0,20.42-5.5,51.28-4.57,5.35,0.16,11,.52,16.94,1.13a231.68,231.68,0,0,1,37.95,7.14S695.22,1087.56,641.88,1158.34Z"/>
   <path class="cls-1" d="M649.8,1105c-4.18-53.92-28.53-106.84-38.52-126.59,5.35,0.16,11,.52,16.94,1.13C659,1041.51,649.8,1105,649.8,1105Z"/>
   <path class="cls-4" d="M601.56,1120.34s-3.58,59.3-22.07,111.74a221.81,221.81,0,0,1-13.13,30.42,129.15,129.15,0,0,1-16.8,24.84h-78c-21.66-24.54-34.51-64.14-42-98.62a500,500,0,0,1-10-68.38h182Z"/>
   <path class="cls-1" d="M579.49,1232.08a221.81,221.81,0,0,1-13.13,30.42c-6.92-14.84-24-33.4-65.8-39.66-34.17-5.11-57.21-17.57-71-34.12a500,500,0,0,1-10-68.38h42.72c3.88,19.88,16.46,54.23,57.28,64C557,1193.31,573.38,1212.95,579.49,1232.08Z"/>
   <path class="cls-1" d="M527.56,1134.09c-27.12-.86-35.5,21.75,13.5,36.25S567.06,1135.34,527.56,1134.09Z"/>
   <polygon class="cls-1" points="765.56 1102.58 746.56 1176.08 775.56 1182.08 801.56 1109.58 765.56 1102.58"/>
   <path class="cls-2" d="M775.56,1185.08a3,3,0,0,1-.61-0.06l-29-6a3,3,0,0,1-2.3-3.69l19-73.5a3,3,0,0,1,3.48-2.19l36,7a3,3,0,0,1,2.25,4l-26,72.5A3,3,0,0,1,775.56,1185.08Zm-25.31-11.3,23.36,4.83,23.94-66.76-29.8-5.79Z"/>
   <path class="cls-3" d="M628.11,1274.16v13.18H791s0.53-6.88,1-18.45c1-22.76,2.18-61-.84-103.31l-52-8.33s-44.63,46.44-84.34,82.58c-4.12,3.75-8.47,7.4-13,10.87C633.08,1257.35,628.11,1265.59,628.11,1274.16Z"/>
   <path class="cls-2" d="M705.06,1241.38a3,3,0,0,1-2.16-5.08c34.79-36.07,50.34-65.81,50.49-66.1a3,3,0,1,1,5.33,2.75c-0.64,1.24-16.11,30.81-51.51,67.51A3,3,0,0,1,705.06,1241.38Z"/>
   <ellipse class="cls-1" cx="765.24" cy="1226.99" rx="14.46" ry="16.1"/>
   <path class="cls-2" d="M765.24,1246.09c-9.63,0-17.46-8.57-17.46-19.1s7.83-19.1,17.46-19.1,17.46,8.57,17.46,19.1S774.87,1246.09,765.24,1246.09Zm0-32.21c-6.32,0-11.46,5.88-11.46,13.1s5.14,13.1,11.46,13.1,11.46-5.88,11.46-13.1S771.56,1213.89,765.24,1213.89Z"/>
   <path class="cls-1" d="M628.11,1274.16v13.18H791s0.53-6.88,1-18.45h-86s-5.5-38.31-51.17-29.07c-4.12,3.75-8.47,7.4-13,10.87C633.08,1257.35,628.11,1265.59,628.11,1274.16Z"/>
   <path class="cls-2" d="M791,1290.34H628.11a3,3,0,0,1-3-3v-13.18c0-9.37,5.3-18.55,14.93-25.85,4.29-3.25,8.61-6.85,12.83-10.7a3,3,0,0,1,1.42-.72c15.78-3.2,28.78-1.29,38.63,5.65,10.49,7.4,14.32,18.39,15.57,23.35h83.57a3,3,0,0,1,3,3.13c-0.5,11.49-1,18.48-1,18.55A3,3,0,0,1,791,1290.34Zm-159.92-6H788.23c0.17-2.57.43-6.84,0.69-12.45H706.06a3,3,0,0,1-3-2.57c0-.13-2.17-13.84-13.68-21.92-8.28-5.81-19.42-7.42-33.12-4.79-4.15,3.75-8.4,7.27-12.62,10.48-8.1,6.14-12.56,13.63-12.56,21.07v10.18Z"/>
   <path class="cls-3" d="M1217.56,737.25s-14.67,90-18,101.33-38,30.67-62.67,32-228.66,0-228.66,0l-88.67,255.33-78-17.33s43.64-193.45,64.67-278.06c5.48-22,9.42-36.68,10.66-38.61,1.46-2.27,18.81-7,44.19-13,78.64-18.35,234.48-47.69,234.48-47.69s25.33-48.67,72-48.67S1222.89,705.25,1217.56,737.25Z"/>
   <path class="cls-1" d="M842.49,826.52c-12.53,6.85-26.17,8-36.26,4,5.48-22,9.42-36.68,10.66-38.61,1.46-2.27,18.81-7,44.19-13a20.89,20.89,0,0,1,2.13,3.17C870.9,796.16,861.62,816,842.49,826.52Z"/>
   <path class="cls-2" d="M1164.22,803.08a2.5,2.5,0,0,1-.57-0.07c-8.26-1.93-14-6.21-17.17-12.72-7.44-15.46,3-37.84,3.48-38.79a2.5,2.5,0,0,1,4.52,2.15c-0.1.21-9.9,21.19-3.49,34.48,2.48,5.14,7,8.42,13.8,10A2.5,2.5,0,0,1,1164.22,803.08Z"/>
   <path class="cls-2" d="M799.56,1092.41a2.5,2.5,0,0,1-2.39-3.24L874.5,837.84a2.5,2.5,0,0,1,2.2-1.76l282.71-21.19,11-66.73a2.5,2.5,0,1,1,4.93.81L1164,817.65a2.5,2.5,0,0,1-2.28,2.09l-283,21.21-76.83,249.7A2.5,2.5,0,0,1,799.56,1092.41Z"/>
   <path class="cls-2" d="M816.06,1105.58a2.48,2.48,0,0,1-.54-0.06l-58.5-13a2.5,2.5,0,0,1,1.08-4.88l58.5,13A2.5,2.5,0,0,1,816.06,1105.58Z"/>
   <polygon class="cls-1" points="917.58 914.97 942.17 986.79 969.68 975.84 951.49 901 917.58 914.97"/>
   <path class="cls-2" d="M942.17,989.79a3,3,0,0,1-2.84-2l-24.59-71.82a3,3,0,0,1,1.7-3.75l33.91-14a3,3,0,0,1,4.06,2.06l18.19,74.84a3,3,0,0,1-1.81,3.5l-27.51,11A3,3,0,0,1,942.17,989.79Zm-20.83-73.12L944,982.84,966.15,974,949.4,905.11Z"/>
   <path class="cls-3" d="M897.25,1133.87l7.25,11,136-89.66s-3.35-6-9.29-16c-11.68-19.56-31.76-52.15-57.56-85.8l-48,21.66s-11.7,63.33-25,115.36c-1.38,5.4-3,10.84-4.9,16.25C892.15,1117.1,892.53,1126.72,897.25,1133.87Z"/>
   <path class="cls-2" d="M941.81,1064.66a3.07,3.07,0,0,1-.55-0.05,3,3,0,0,1-2.4-3.5c9.2-49.27,5.82-82.65,5.78-83a3,3,0,0,1,6-.63c0.15,1.39,3.51,34.59-5.85,84.72A3,3,0,0,1,941.81,1064.66Z"/>
   <ellipse class="cls-1" cx="985.78" cy="1019.03" rx="14.46" ry="16.1" transform="matrix(0.83, -0.55, 0.55, 0.83, -398.1, 710.73)"/>
   <path class="cls-2" d="M987.29,1037.66a17.92,17.92,0,0,1-4.54-.59,20,20,0,0,1-11.55-8.43h0A20,20,0,0,1,968,1014.7,16.45,16.45,0,0,1,988.82,1001a20.42,20.42,0,0,1,14.74,22.36A16.64,16.64,0,0,1,996.3,1035,16.25,16.25,0,0,1,987.29,1037.66Zm-3-31.26a10.32,10.32,0,0,0-5.72,1.69,10.71,10.71,0,0,0-4.63,7.51,14,14,0,0,0,2.27,9.74h0a14,14,0,0,0,8.06,5.92,10.45,10.45,0,0,0,13.35-8.8,14.42,14.42,0,0,0-10.33-15.67A11.83,11.83,0,0,0,984.29,1006.4Z"/>
   <path class="cls-1" d="M897.25,1133.87l7.25,11,136-89.66s-3.35-6-9.29-16l-71.81,47.33s-25.68-29-58.72,3.89c-1.38,5.4-3,10.84-4.9,16.25C892.15,1117.1,892.53,1126.72,897.25,1133.87Z"/>
   <path class="cls-2" d="M904.5,1147.88a3,3,0,0,1-2.5-1.35l-7.25-11c-5.16-7.82-5.78-18.41-1.76-29.8,1.79-5.07,3.41-10.45,4.82-16a3,3,0,0,1,.79-1.39C910,1077,921.93,1071.41,934,1071.8c12.83,0.4,22.08,7.47,25.85,10.93l69.78-46a3,3,0,0,1,4.23,1c5.9,9.87,9.3,16,9.34,16.06a3,3,0,0,1-1,4l-136,89.66A3,3,0,0,1,904.5,1147.88ZM903.41,1092c-1.41,5.43-3,10.7-4.77,15.69-3.38,9.58-3,18.29,1.11,24.5h0l5.6,8.5,131.19-86.47c-1.27-2.24-3.41-5.95-6.27-10.77l-69.19,45.61a3,3,0,0,1-3.9-.51c-0.09-.1-9.43-10.36-23.49-10.77C923.63,1077.52,913.4,1082.29,903.41,1092Z"/>
   <path class="cls-3" d="M944.18,761.18l27.88,144.16-68.63,23.34s-65.61-118.84-83.12-172.76c-2.86-8.77-4.44-15.83-4.25-20.37,1.33-32.46,33.33-60.88,52.66-60.21a45.91,45.91,0,0,1,6.84,1.07c38.7,8.08,194.72,59.6,194.72,59.6Z"/>
   <path class="cls-2" d="M903.43,931.18a2.5,2.5,0,0,1-2.19-1.29c-0.39-.7-38.88-70.53-64.51-126.85a2.5,2.5,0,1,1,4.55-2.07c23.23,51,57.08,113.27,63.33,124.67l64.58-22-27.47-142a2.5,2.5,0,0,1,2-2.93l123.52-24.65a2.5,2.5,0,1,1,1,4.9L947.1,763.14l27.41,141.72a2.5,2.5,0,0,1-1.65,2.84L904.23,931A2.5,2.5,0,0,1,903.43,931.18Z"/>
   <path class="cls-1" d="M858.39,743.43c-16.22,14.09-31.44,10.47-40,6.35-1.66-5.94-2.52-10.8-2.38-14.23,1.33-32.46,33.33-60.88,52.66-60.21a45.91,45.91,0,0,1,6.84,1.07s0,0.1.05,0.3C876.2,680.67,881.89,723,858.39,743.43Z"/>
   <path class="cls-2" d="M903.72,910.84a2.5,2.5,0,0,1-.79-4.87l55.67-18.67a2.5,2.5,0,0,1,1.59,4.74l-55.67,18.67A2.49,2.49,0,0,1,903.72,910.84Z"/>
   <path class="cls-2" d="M938.72,889.84a2.5,2.5,0,0,1-2.47-2.11L911.59,732.4a2.5,2.5,0,0,1,3.28-2.76l64.69,22.28a2.5,2.5,0,0,1-1.63,4.73l-60.75-20.92,24,151.22a2.5,2.5,0,0,1-2.08,2.86A2.46,2.46,0,0,1,938.72,889.84Z"/>
   <path class="cls-2" d="M944.18,763.68a2.49,2.49,0,0,1-1.74-.7l-39.37-38.13a2.5,2.5,0,1,1,3.48-3.59l39.37,38.13A2.5,2.5,0,0,1,944.18,763.68Z"/>
   <path class="cls-1" d="M749.3,300.88h0a5.07,5.07,0,0,0,1.65,6.23l44.15,31.66a4.2,4.2,0,0,1,1.17,5.56h0a4.2,4.2,0,0,1-6.13,1.24L776,335a6.62,6.62,0,0,0-8.09.15h0a6.62,6.62,0,0,0-1.67,8.36l12.12,22.1a32,32,0,0,0,17.36,14.77l9.18,3.26L815.22,399l31.33-6.67-11-22.67-7.74-37.37a16.82,16.82,0,0,0-10.88-12.45l-61.35-21.64A5.07,5.07,0,0,0,749.3,300.88Z"/>
   <path class="cls-2" d="M815.22,402a3,3,0,0,1-2.49-1.32L803,386.17l-8.24-2.93a35,35,0,0,1-19-16.15L763.6,345a9.62,9.62,0,0,1,14.17-12.36l14.15,10.51a1.2,1.2,0,0,0,1,.21,1.2,1.2,0,0,0,.46-2.16L749.2,309.54a8.08,8.08,0,0,1-2.63-9.92h0a8,8,0,0,1,10-4.25L817.94,317a19.92,19.92,0,0,1,12.82,14.67l7.67,37L849.25,391a3,3,0,0,1-2.08,4.24l-31.33,6.67A3,3,0,0,1,815.22,402ZM772,336.74a3.62,3.62,0,0,0-3.18,5.37L781,364.21a29,29,0,0,0,15.73,13.38l9.18,3.26a3,3,0,0,1,1.49,1.15l9.2,13.65,25.6-5.45L832.86,371a3,3,0,0,1-.24-0.7l-7.74-37.37a13.89,13.89,0,0,0-8.94-10.23L754.59,301a2.05,2.05,0,0,0-2.56,1.09h0a2.07,2.07,0,0,0,.67,2.54l44.15,31.66A7.2,7.2,0,1,1,788.35,348L774.2,337.46A3.62,3.62,0,0,0,772,336.74ZM749.3,300.88h0Z"/>
   <path class="cls-4" d="M1015.06,391.34l-4.5,118s-74.12,21-127.34,32.91q-3.54.8-6.94,1.53a50.51,50.51,0,0,1-58.88-33.71c-16.08-49.47-24.11-113.48-24.11-113.48s24.77-17.25,56.27-12.25l33,61.5Z"/>
   <path class="cls-1" d="M883.22,542.25q-3.54.8-6.94,1.53a50.66,50.66,0,0,1-55.06-24.91A37.68,37.68,0,0,1,883.22,542.25Z"/>
   <path class="cls-2" d="M871.06,498.34a2.5,2.5,0,0,1-2.44-3.06l10-43.5a2.5,2.5,0,1,1,4.87,1.12l-10,43.5A2.5,2.5,0,0,1,871.06,498.34Z"/>
   <path class="cls-2" d="M805.89,423.17a2.5,2.5,0,0,1-1.11-4.74c0.87-.43,21.67-10.54,50.66-11.61a2.5,2.5,0,0,1,.18,5A132.56,132.56,0,0,0,807,422.92,2.49,2.49,0,0,1,805.89,423.17Z"/>
   <circle class="cls-1" cx="809.55" cy="402.82" r="6.5"/>
   <path class="cls-2" d="M809.55,412.32a9.5,9.5,0,1,1,9.5-9.5A9.51,9.51,0,0,1,809.55,412.32Zm0-13a3.5,3.5,0,1,0,3.5,3.5A3.5,3.5,0,0,0,809.55,399.32Z"/>
   <path class="cls-4" d="M1257.56,414.84s-76-50.5-132-49.5-110.5,26-110.5,26c-45.5,95-59.61,307.59-59.61,307.59s25,8.61,95.8,30.84A537.17,537.17,0,0,0,1172.47,762l7.11-42.34a6.15,6.15,0,0,1,6.83-5.08h0a6.15,6.15,0,0,1,5.33,6.91l-5.59,42.23c25.25,2.72,39.47,1.71,39.47,1.71C1258.63,648.43,1257.56,414.84,1257.56,414.84Z"/>
   <path class="cls-2" d="M980.25,511.36a2.5,2.5,0,0,1-2.46-3c9.34-47.13,20.13-84.73,32.08-111.76a2.5,2.5,0,1,1,4.57,2c-11.8,26.69-22.48,63.94-31.75,110.71A2.5,2.5,0,0,1,980.25,511.36Z"/>
   <path class="cls-1" d="M1184.59,392.42c-10.81,23.06-30,31.91-41.93,35.24-2.5-16.77-10.19-38-10.19-38-9.71,12.5-15.18,29.27-16.64,37-29.85-9.25-32.34-38.31-32.34-38.31,4.61-28.89,30.27-49.93,51.66-48.51C1182.41,342.92,1184.59,392.42,1184.59,392.42Z"/>
   <path class="cls-2" d="M1142.66,430.66a3,3,0,0,1-3-2.56c-1.67-11.18-5.75-24.58-8.17-31.93a97.66,97.66,0,0,0-12.75,31,3,3,0,0,1-3.84,2.31c-31.41-9.74-34.42-40.61-34.44-40.92a3,3,0,0,1,0-.73c5.09-31.88,33-52.48,54.82-51,25.83,1.71,38.69,16.79,44.93,29.13a71.34,71.34,0,0,1,7.32,26.36,3,3,0,0,1-.28,1.41,67.94,67.94,0,0,1-43.85,36.86A3,3,0,0,1,1142.66,430.66Zm-10.19-44a3,3,0,0,1,2.82,2c0.3,0.82,6.85,19,9.77,35.16a61.67,61.67,0,0,0,36.49-32c-0.47-6.14-5.12-46.3-46.61-49.06-19.15-1.27-43.81,17.94-48.43,45.6,0.37,3.17,3.79,25.35,27.13,34.29,2.14-8.49,7.4-23.21,16.46-34.87A3,3,0,0,1,1132.46,386.65Z"/>
   <path class="cls-4" d="M1295.16,543c-0.15,40.95-1.36,93.52-9.75,128.61-5.32,22.2-13.5,37.42-26.12,38.25-10.41.69-21.33-1.5-32.23-5.59-46.81-17.62-101.54-74.67-107-86-6.75-13.93,4-49.35,20.5-52s64,24,64,24,21.71-113.85,26.78-137.11,26.22-38.39,26.22-38.39C1287.46,428.22,1295.41,476.2,1295.16,543Z"/>
   <circle class="cls-1" cx="1139.06" cy="619.5" r="5.83" transform="translate(-97.96 230.88) rotate(-11.1)"/>
   <path class="cls-2" d="M1139.06,628.33a8.84,8.84,0,1,1,1.7-.17A8.85,8.85,0,0,1,1139.06,628.33Zm0-11.67a2.84,2.84,0,0,0-2.79,3.38,2.83,2.83,0,1,0,5.56-1.09h0A2.83,2.83,0,0,0,1139.07,616.66Z"/>
   <path class="cls-2" d="M1222.92,705.66a3,3,0,0,1-1.16-.24c-45.29-19.05-98.44-73.46-104.41-85.77-5.08-10.49-1.37-28.53,4.71-40.18,4.84-9.29,11.24-15,18-16.09,14.92-2.39,50.26,15.83,62.3,22.34,3.92-20.53,21.54-112.59,26-133.13,3.21-14.71,12.41-26.26,19.56-33.36a3,3,0,0,1,4.23,4.26c-6.58,6.53-15,17.1-17.93,30.38-5,23-26.54,135.89-26.76,137a3,3,0,0,1-4.42,2.05c-13-7.27-49.36-25.69-62.06-23.65-4.86.78-9.7,5.37-13.65,12.94-6.14,11.78-8.22,27.39-4.63,34.79,4.74,9.78,55.15,63.44,101.33,82.86A3,3,0,0,1,1222.92,705.66Z"/>
   <path class="cls-2" d="M1152.22,638.34a3,3,0,0,1-2.15-5.09c23.71-24.34,9.85-61.11,9.71-61.48a3,3,0,0,1,5.6-2.17c0.64,1.65,15.37,40.77-11,67.84A3,3,0,0,1,1152.22,638.34Z"/>
   <path class="cls-2" d="M1250.68,625.53a3,3,0,0,1-2.49-1.33h0a70.59,70.59,0,0,0-35-24.5,3,3,0,0,1,.9-5.86c1,0,23.88.1,43,8.93a3,3,0,1,1-2.52,5.45,91.5,91.5,0,0,0-22.75-6.66c14,8.47,21,18.74,21.41,19.32A3,3,0,0,1,1250.68,625.53Z"/>
   <path class="cls-1" d="M1285.41,671.65c-5.32,22.2-13.5,37.42-26.12,38.25-10.41.69-21.33-1.5-32.23-5.59a36.28,36.28,0,0,1-.48-3.9A35.38,35.38,0,0,1,1285.41,671.65Z"/>
   <rect class="cls-1" x="1047.56" y="487.34" width="77.33" height="127.33" rx="5.83" ry="5.83" transform="translate(-85.76 219.43) rotate(-11.1)"/>
   <path class="cls-2" d="M1065.12,622.91a8.84,8.84,0,0,1-8.65-7.14l-22.27-113.5a8.83,8.83,0,0,1,7-10.37l64.44-12.64a8.84,8.84,0,0,1,10.37,7l22.27,113.5a8.84,8.84,0,0,1-7,10.37l-64.44,12.64A8.92,8.92,0,0,1,1065.12,622.91Zm42.19-137.81a2.83,2.83,0,0,0-.55.05l-64.44,12.64a2.83,2.83,0,0,0-2.23,3.33l22.27,113.5a2.84,2.84,0,0,0,3.33,2.23l64.44-12.64h0a2.84,2.84,0,0,0,2.23-3.33l-22.27-113.5A2.84,2.84,0,0,0,1107.31,485.1Z"/>
   <circle class="cls-1" cx="1055.81" cy="509.41" r="5.83" transform="translate(-78.32 212.79) rotate(-11.1)"/>
   <path class="cls-2" d="M1055.8,518.25a8.83,8.83,0,1,1,8.69-10.54h0a8.85,8.85,0,0,1-7,10.37A8.94,8.94,0,0,1,1055.8,518.25Zm0-11.67a2.86,2.86,0,0,0-.55.05A2.82,2.82,0,1,0,1055.82,506.58Z"/>
   <path class="cls-1" d="M1085,536.25c-10.31,3-9.25,18.75,3.5,18.75s50.5-2.25,45-17.5S1105.47,530.25,1085,536.25Z"/>
   <path class="cls-2" d="M1088.47,558c-8.16,0-12.59-5.38-13.35-10.71a12.58,12.58,0,0,1,9-13.92h0l4.42-1.31c19.53-5.81,41.68-12.4,47.75,4.42a10.2,10.2,0,0,1-1.15,9.7C1127.25,557.43,1094.88,558,1088.47,558Zm-2.66-18.87a6.54,6.54,0,0,0-4.75,7.31c0.38,2.69,2.53,5.56,7.41,5.56,14.17,0,37-2.47,41.77-9.27a4.23,4.23,0,0,0,.41-4.21c-3.85-10.67-19.16-7-40.39-.7l-4.45,1.32h0Z"/>
   <path class="cls-1" d="M1091,554c-9.92,4-9.75,21-4.5,39.25s18.25,27,36.5,22.5,29-15,23.25-40.75S1132.72,537.25,1091,554Z"/>
   <path class="cls-2" d="M1114,619.9c-14.59,0-25.65-9.17-30.44-25.82-6.61-23-4.33-38.61,6.27-42.86h0c21.09-8.46,34.56-10.09,43.67-5.29,8.75,4.61,12.47,14.29,15.62,28.42,5.49,24.6-2.6,38.68-25.46,44.32A40.34,40.34,0,0,1,1114,619.9Zm-21.94-63.11c-7.07,2.84-8.15,16.83-2.73,35.64,4.94,17.18,16.62,24.43,32.9,20.42,19.49-4.81,25.79-15.93,21-37.18-2.78-12.46-5.85-20.89-12.56-24.42-7.32-3.85-19.6-2.09-38.64,5.55h0Z"/>
   <path class="cls-1" d="M1164.74,282.2L1163,311.27,1160.1,361c-17.12,11.16-33.44,11.87-48.76-.43l3-23,4.62-34.9Z"/>
   <path class="cls-2" d="M1134.89,372.58c-8.89,0-17.38-3.23-25.42-9.68a3,3,0,0,1-1.1-2.73l7.66-57.95a3,3,0,0,1,1.75-2.35l45.74-20.41a3,3,0,0,1,4.22,2.92l-4.63,78.79a3,3,0,0,1-1.36,2.34C1152.46,369.56,1143.49,372.58,1134.89,372.58Zm-20.34-13.34c13,9.76,27,9.77,42.66,0l4.25-72.34-39.7,17.72Z"/>
   <path class="cls-2" d="M1148.94,289.25c-0.65,13.14-.89,57.93-36.32,61.63l6.38-48.26Z"/>
   <path class="cls-1" d="M1076.38,282.92c2.41,23.95,9.36,52.59,38.09,48.13,34.16-5.3,56.24-29.45,56.56-61.95s-14.67-50.83-53.59-47.11a59.72,59.72,0,0,0-9.8,1.75c-22.4,6-33.66,24.59-32.27,46.37C1075.62,274.05,1075.91,278.41,1076.38,282.92Z"/>
   <path class="cls-2" d="M1108.75,334.51a27.83,27.83,0,0,1-17.93-6c-14.32-11.5-17-36.06-18.45-58.19-0.85-13.34,2.71-25.24,10.29-34.41,8-9.65,19.91-15.49,34.49-16.89a3,3,0,0,1,.57,6c-25.5,2.44-41,20.08-39.36,44.94,1,15.06,2.76,43.09,16.22,53.89,5.12,4.11,11.48,5.51,19.43,4.27,12.71-2,23.68-6.57,32.6-13.66a3,3,0,0,1,3.73,4.7c-9.61,7.64-21.85,12.79-35.41,14.89A40.25,40.25,0,0,1,1108.75,334.51Z"/>
   <path class="cls-2" d="M1181.19,275.22a99.84,99.84,0,0,1-11.05,13.35l-17.23,1.07-3.67-12.19s-10.93-.49-13.19-7.86a4.27,4.27,0,0,1-.14-0.52c-0.58-2.42-2.82-13.2-1.18-29.94,0,0-26.28,11.6-40.58,13.11-5.14.55-11.15-1.43-16.74-4.2-11.2-5.53-21-23.78-19-36.11l0-.24c3.08-18.08,12.5-5.55,12.5-5.55s2.7-14.56,11.81-15.6,14.92,12.4,14.92,12.4a143.59,143.59,0,0,1,53.4-2.23c35.25,5.38,26.47,29.66,26.47,29.66S1203.43,238.69,1181.19,275.22Z"/>
   <path class="cls-1" d="M1156.66,287.78c-1.48-13.58,8.07-26.19,21.64-27.75a22.75,22.75,0,0,1,8.59.61c16.82,4.54,12.4,43.7-28.75,40.71Z"/>
   <path class="cls-2" d="M1162.43,304.52q-2.19,0-4.52-.17a3,3,0,0,1,.44-6c22.61,1.65,32.69-9.88,34.45-20.25,1.2-7.07-1.62-13.2-6.7-14.57a19.79,19.79,0,0,0-7.47-.53c-11.79,1.36-20.32,12.32-19,24.45a3,3,0,1,1-6,.65c-1.67-15.39,9.22-29.32,24.28-31.05a25.81,25.81,0,0,1,9.72.7c8.13,2.2,12.78,11.18,11,21.37C1196.51,292.12,1184.47,304.52,1162.43,304.52Z"/>
   <path class="cls-2" d="M1309.91,1290.34h-888a3,3,0,1,1,0-6h888A3,3,0,0,1,1309.91,1290.34Z"/>
   <path class="cls-2" d="M395,1290.34H347.94a3,3,0,1,1,0-6H395A3,3,0,0,1,395,1290.34Z"/>
   <path class="cls-2" d="M1353.51,1290.34H1330a3,3,0,0,1,0-6h23.53A3,3,0,0,1,1353.51,1290.34Z"/>
   <path class="cls-2" d="M1065.57,1328.67H666.25a3,3,0,0,1,0-6h399.32A3,3,0,0,1,1065.57,1328.67Z"/>
   <path class="cls-2" d="M615.47,1328.67h-84a3,3,0,0,1,0-6h84A3,3,0,1,1,615.47,1328.67Z"/>
   <path class="cls-2" d="M1152.87,1328.67h-27.61a3,3,0,0,1,0-6h27.61A3,3,0,0,1,1152.87,1328.67Z"/>
   <path class="cls-1" d="M766.51,732.86h-348a18.11,18.11,0,0,1-17.34-14.72l-94-588.5c-1.3-8.13,4.36-14.72,12.64-14.72h348a18.11,18.11,0,0,1,17.34,14.72l94,588.5C780.45,726.26,774.79,732.86,766.51,732.86Z"/>
   <path class="cls-2" d="M766.51,735.86h-348c-9.68,0-18.78-7.74-20.3-17.25l-94-588.5a15.34,15.34,0,0,1,15.6-18.2h348c9.68,0,18.78,7.74,20.3,17.25l94,588.5A15.34,15.34,0,0,1,766.51,735.86ZM319.81,117.91a9.82,9.82,0,0,0-7.65,3.29,9.69,9.69,0,0,0-2,8l94,588.5a15,15,0,0,0,14.38,12.2h348a9.82,9.82,0,0,0,7.65-3.29,9.69,9.69,0,0,0,2-8l-94-588.5a15,15,0,0,0-14.38-12.2h-348Z"/>
   <path class="cls-4" d="M729.49,679.52h-57a18.11,18.11,0,0,1-17.34-14.72L638.28,559.28c-1.3-8.13,4.36-14.72,12.64-14.72h57a18.11,18.11,0,0,1,17.34,14.72L742.13,664.8C743.43,672.93,737.77,679.52,729.49,679.52Z"/>
   <path class="cls-3" d="M612.5,679.52h-57a18.11,18.11,0,0,1-17.34-14.72L521.29,559.28c-1.3-8.13,4.36-14.72,12.64-14.72h57a18.11,18.11,0,0,1,17.34,14.72L625.14,664.8C626.43,672.93,620.78,679.52,612.5,679.52Z"/>
   <path class="cls-1" d="M495.5,679.52h-57a18.11,18.11,0,0,1-17.34-14.72L404.29,559.28c-1.3-8.13,4.36-14.72,12.64-14.72h57a18.11,18.11,0,0,1,17.34,14.72L508.14,664.8C509.44,672.93,503.78,679.52,495.5,679.52Z"/>
   <path class="cls-2" d="M495.5,682.52h-57c-9.68,0-18.78-7.74-20.3-17.25L401.33,559.76a15.34,15.34,0,0,1,15.6-18.2h57c9.68,0,18.78,7.74,20.3,17.25L511.1,664.32A15.34,15.34,0,0,1,495.5,682.52Zm-78.57-135a9.82,9.82,0,0,0-7.65,3.29,9.69,9.69,0,0,0-2,8l16.85,105.51a15,15,0,0,0,14.38,12.2h57a9.82,9.82,0,0,0,7.65-3.29,9.69,9.69,0,0,0,2-8L488.33,559.76A15,15,0,0,0,474,547.56h-57Z"/>
   <polygon class="cls-1" points="740.26 474.68 362.28 474.68 315.18 179.74 693.16 179.74 740.26 474.68"/>
   <path class="cls-2" d="M740.26,477.68h-378a3,3,0,0,1-3-2.53L312.22,180.21a3,3,0,0,1,3-3.47h378a3,3,0,0,1,3,2.53l47.11,294.94A3,3,0,0,1,740.26,477.68Zm-375.42-6h371.9L690.6,182.74H318.7Z"/>
   <path class="cls-4" d="M530.08,415c-61.83-28.16-128,0-128,0L376,251.9s66.17-28.16,128,0Z"/>
   <path class="cls-4" d="M553.41,415c52.84-28.16,128,0,128,0L655.36,251.9s-75.16-28.16-128,0Z"/>
   <polygon class="cls-3" points="553.41 415.03 530.08 415.03 504.03 251.9 527.36 251.9 553.41 415.03"/>
   <path class="cls-3" d="M368.69,160.34H345.22a4.5,4.5,0,0,1-4.11-3l-6.55-18.76a3.09,3.09,0,0,1,3-4.3h30.59a4.41,4.41,0,0,1,4.33,4.3l-0.56,18.76A3,3,0,0,1,368.69,160.34Z"/>
   <path class="cls-3" d="M658,142.17H629.8a4.83,4.83,0,0,1-4.63-3.93h0a3.29,3.29,0,0,1,3.37-3.93h28.25a4.83,4.83,0,0,1,4.63,3.93h0A3.29,3.29,0,0,1,658,142.17Z"/>
   <path class="cls-3" d="M661,160.34H632.7a4.83,4.83,0,0,1-4.63-3.93h0a3.29,3.29,0,0,1,3.37-3.93H659.7a4.83,4.83,0,0,1,4.63,3.93h0A3.29,3.29,0,0,1,661,160.34Z"/>
   <path class="cls-3" d="M899.81,146.12A19.63,19.63,0,0,0,910,136l2.61-6,2.61,6a19.63,19.63,0,0,0,10.15,10.15l6,2.61-6,2.61a19.63,19.63,0,0,0-10.15,10.15l-2.61,6-2.61-6a19.63,19.63,0,0,0-10.15-10.15l-6-2.61Z"/>
   <path class="cls-4" d="M274.6,700.66a15,15,0,0,0,7.77-7.77l2-4.58,2,4.58a15,15,0,0,0,7.77,7.77l4.58,2-4.58,2a15,15,0,0,0-7.77,7.77l-2,4.58-2-4.58a15,15,0,0,0-7.77-7.77l-4.58-2Z"/>
   <path class="cls-3" d="M336.56,783.82a23.75,23.75,0,0,0,12.29-12.29l3.16-7.25,3.16,7.25a23.75,23.75,0,0,0,12.29,12.29l7.25,3.16-7.25,3.16a23.75,23.75,0,0,0-12.29,12.29L352,809.66l-3.16-7.25a23.75,23.75,0,0,0-12.29-12.29L329.31,787Z"/>
   <path class="cls-4" d="M1213.16,101.84a33.45,33.45,0,0,0,17.31-17.31l4.45-10.2,4.45,10.2a33.45,33.45,0,0,0,17.31,17.31l10.2,4.45-10.2,4.45A33.45,33.45,0,0,0,1239.36,128l-4.45,10.2-4.45-10.2a33.45,33.45,0,0,0-17.31-17.31l-10.2-4.45Z"/>
   <circle class="cls-3" cx="1268.98" cy="301.06" r="11.42"/>
</svg>